  0
SECTION
  2
HEADER
  9
$ACADVER
  1
AC1006
  9
$EXTMIN
 10
0.000000
 20
0.000000
 30
0.000000
  9
$EXTMAX
 10
487.000000
 20
475.000000
 30
0.000000
  0
ENDSEC
  0
SECTION
  2
ENTITIES
  0
POLYLINE
  8
0
 66
1
 70
1
  0
VERTEX
  8
0
 10
153.317683
 20
445.783305
 42
0.034187
  0
VERTEX
  8
0
 10
152.858574
 20
445.090227
 42
0.010762
  0
VERTEX
  8
0
 10
152.267466
 20
443.995721
 42
0.010694
  0
VERTEX
  8
0
 10
151.658659
 20
442.742680
 42
0.011659
  0
VERTEX
  8
0
 10
151.122139
 20
441.500000
 42
-0.074767
  0
VERTEX
  8
0
 10
148.267435
 20
436.666758
 42
-0.054301
  0
VERTEX
  8
0
 10
143.817499
 20
432.268691
 42
-0.043195
  0
VERTEX
  8
0
 10
137.523612
 20
428.102698
 42
-0.022286
  0
VERTEX
  8
0
 10
129.029803
 20
423.959825
 42
0.015255
  0
VERTEX
  8
0
 10
121.390760
 20
420.365894
 42
0.030479
  0
VERTEX
  8
0
 10
115.636407
 20
416.985092
 42
0.038951
  0
VERTEX
  8
0
 10
111.465789
 20
413.680936
 42
0.072601
  0
VERTEX
  8
0
 10
108.767387
 20
410.330323
 42
-0.051400
  0
VERTEX
  8
0
 10
107.596696
 20
408.743948
 42
-0.019017
  0
VERTEX
  8
0
 10
105.647978
 20
406.760211
 42
-0.018611
  0
VERTEX
  8
0
 10
103.341114
 20
404.740786
 42
-0.021325
  0
VERTEX
  8
0
 10
100.989836
 20
402.993098
 42
0.030649
  0
VERTEX
  8
0
 10
96.381016
 20
399.432154
 42
0.040340
  0
VERTEX
  8
0
 10
92.679742
 20
395.623097
 42
0.034647
  0
VERTEX
  8
0
 10
89.248318
 20
390.828183
 42
0.015785
  0
VERTEX
  8
0
 10
85.414973
 20
384.137942
 42
-0.037809
  0
VERTEX
  8
0
 10
81.696752
 20
378.263921
 42
-0.034033
  0
VERTEX
  8
0
 10
77.013929
 20
372.793141
 42
-0.033651
  0
VERTEX
  8
0
 10
71.573123
 20
367.948223
 42
-0.034888
  0
VERTEX
  8
0
 10
65.594162
 20
363.940610
 42
-0.005789
  0
VERTEX
  8
0
 10
63.587905
 20
362.820553
 42
-0.008204
  0
VERTEX
  8
0
 10
61.775609
 20
361.874303
 42
-0.005101
  0
VERTEX
  8
0
 10
60.239501
 20
361.123575
 42
-0.108396
  0
VERTEX
  8
0
 10
59.748337
 20
361.009384
 42
-0.210962
  0
VERTEX
  8
0
 10
59.313902
 20
361.194775
 42
-0.008853
  0
VERTEX
  8
0
 10
58.162283
 20
362.471507
 42
-0.013969
  0
VERTEX
  8
0
 10
56.835510
 20
364.084710
 42
-0.009339
  0
VERTEX
  8
0
 10
55.404532
 20
366.000000
 42
0.016048
  0
VERTEX
  8
0
 10
53.933258
 20
367.915088
 42
0.022047
  0
VERTEX
  8
0
 10
52.483248
 20
369.531250
 42
0.019601
  0
VERTEX
  8
0
 10
51.204541
 20
370.737500
 42
0.181208
  0
VERTEX
  8
0
 10
50.504020
 20
371.000000
 42
0.276995
  0
VERTEX
  8
0
 10
49.149764
 20
370.187409
 42
0.052850
  0
VERTEX
  8
0
 10
48.026987
 20
367.411178
 42
0.042780
  0
VERTEX
  8
0
 10
47.253461
 20
363.457489
 42
0.026931
  0
VERTEX
  8
0
 10
47.000000
 20
358.755147
 42
-0.018425
  0
VERTEX
  8
0
 10
46.886839
 20
355.685358
 42
-0.042195
  0
VERTEX
  8
0
 10
46.522788
 20
353.400915
 42
-0.051299
  0
VERTEX
  8
0
 10
45.839676
 20
351.499351
 42
-0.043078
  0
VERTEX
  8
0
 10
44.750000
 20
349.654370
 42
0.045066
  0
VERTEX
  8
0
 10
43.617029
 20
347.718584
 42
0.055519
  0
VERTEX
  8
0
 10
42.942416
 20
345.739566
 42
0.041088
  0
VERTEX
  8
0
 10
42.600033
 20
343.227774
 42
0.013337
  0
VERTEX
  8
0
 10
42.500000
 20
339.478283
 42
0.056317
  0
VERTEX
  8
0
 10
43.264578
 20
332.711676
 42
0.052385
  0
VERTEX
  8
0
 10
45.523697
 20
326.109829
 42
0.051338
  0
VERTEX
  8
0
 10
49.160853
 20
320.000151
 42
0.049775
  0
VERTEX
  8
0
 10
54.000159
 20
314.689766
 42
0.017519
  0
VERTEX
  8
0
 10
58.535527
 20
310.890756
 42
0.123694
  0
VERTEX
  8
0
 10
61.145557
 20
309.737367
 42
0.245384
  0
VERTEX
  8
0
 10
63.070553
 20
310.356742
 42
0.083834
  0
VERTEX
  8
0
 10
64.806356
 20
312.835188
 42
-0.049451
  0
VERTEX
  8
0
 10
66.239296
 20
315.212137
 42
-0.184058
  0
VERTEX
  8
0
 10
67.689283
 20
316.132196
 42
-0.075054
  0
VERTEX
  8
0
 10
70.099367
 20
316.256557
 42
-0.004149
  0
VERTEX
  8
0
 10
77.623076
 20
315.451702
 42
0.022221
  0
VERTEX
  8
0
 10
81.475285
 20
315.179928
 42
0.064336
  0
VERTEX
  8
0
 10
84.129031
 20
315.452885
 42
0.046482
  0
VERTEX
  8
0
 10
87.068346
 20
316.439646
 42
0.007591
  0
VERTEX
  8
0
 10
92.530744
 20
318.957838
 42
-0.028780
  0
VERTEX
  8
0
 10
101.961893
 20
322.830210
 42
-0.036534
  0
VERTEX
  8
0
 10
111.059484
 20
325.240876
 42
-0.038432
  0
VERTEX
  8
0
 10
118.536218
 20
326.060322
 42
-0.231616
  0
VERTEX
  8
0
 10
121.997927
 20
324.502498
 42
-0.109572
  0
VERTEX
  8
0
 10
122.508198
 20
323.508939
 42
-0.036131
  0
VERTEX
  8
0
 10
122.810240
 20
321.885505
 42
-0.029609
  0
VERTEX
  8
0
 10
122.921542
 20
319.768070
 42
-0.016382
  0
VERTEX
  8
0
 10
122.819399
 20
317.179970
 42
-0.052888
  0
VERTEX
  8
0
 10
121.933011
 20
312.249749
 42
-0.055892
  0
VERTEX
  8
0
 10
120.039866
 20
307.711852
 42
-0.027715
  0
VERTEX
  8
0
 10
116.199978
 20
301.618561
 42
-0.003846
  0
VERTEX
  8
0
 10
107.448767
 20
289.500000
 42
0.019111
  0
VERTEX
  8
0
 10
99.743815
 20
278.113566
 42
0.018703
  0
VERTEX
  8
0
 10
92.871801
 20
266.091342
 42
0.019704
  0
VERTEX
  8
0
 10
87.382071
 20
254.505017
 42
0.034699
  0
VERTEX
  8
0
 10
83.913622
 20
244.500000
 42
0.036755
  0
VERTEX
  8
0
 10
82.011947
 20
234.657581
 42
0.023000
  0
VERTEX
  8
0
 10
81.174540
 20
222.947690
 42
0.022909
  0
VERTEX
  8
0
 10
81.416160
 20
211.111779
 42
0.034306
  0
VERTEX
  8
0
 10
82.805235
 20
200.869982
 42
0.059583
  0
VERTEX
  8
0
 10
89.273068
 20
181.509369
 42
0.058752
  0
VERTEX
  8
0
 10
100.146624
 20
164.119840
 42
0.057318
  0
VERTEX
  8
0
 10
115.044933
 20
149.378432
 42
0.051912
  0
VERTEX
  8
0
 10
133.383337
 20
137.833561
 42
-0.011700
  0
VERTEX
  8
0
 10
137.432100
 20
135.717854
 42
-0.071836
  0
VERTEX
  8
0
 10
139.304072
 20
134.299625
 42
-0.094885
  0
VERTEX
  8
0
 10
140.455436
 20
132.579329
 42
-0.027991
  0
VERTEX
  8
0
 10
141.532040
 20
129.580154
 42
-0.029326
  0
VERTEX
  8
0
 10
143.062173
 20
123.046256
 42
-0.018130
  0
VERTEX
  8
0
 10
144.125274
 20
115.227922
 42
-0.017319
  0
VERTEX
  8
0
 10
144.599944
 20
107.850932
 42
-0.062741
  0
VERTEX
  8
0
 10
144.151439
 20
103.178490
 42
-0.033559
  0
VERTEX
  8
0
 10
142.798694
 20
98.613860
 42
-0.108725
  0
VERTEX
  8
0
 10
141.098583
 20
95.971938
 42
-0.119877
  0
VERTEX
  8
0
 10
138.549690
 20
94.430932
 42
-0.045247
  0
VERTEX
  8
0
 10
134.452158
 20
93.537290
 42
0.021860
  0
VERTEX
  8
0
 10
127.861826
 20
92.419504
 42
0.038821
  0
VERTEX
  8
0
 10
122.586432
 20
90.849120
 42
0.045479
  0
VERTEX
  8
0
 10
118.232040
 20
88.703520
 42
0.049037
  0
VERTEX
  8
0
 10
114.454786
 20
85.851558
 42
0.040175
  0
VERTEX
  8
0
 10
111.259737
 20
82.392732
 42
0.035654
  0
VERTEX
  8
0
 10
108.516002
 20
78.331812
 42
0.037309
  0
VERTEX
  8
0
 10
106.597167
 20
74.342544
 42
0.093710
  0
VERTEX
  8
0
 10
106.000000
 20
71.184276
 42
0.136108
  0
VERTEX
  8
0
 10
106.436086
 20
69.611967
 42
0.318771
  0
VERTEX
  8
0
 10
107.496230
 20
69.148021
 42
0.126091
  0
VERTEX
  8
0
 10
109.258824
 20
70.011480
 42
0.027064
  0
VERTEX
  8
0
 10
111.744923
 20
72.376726
 42
-0.029672
  0
VERTEX
  8
0
 10
113.156790
 20
73.706009
 42
-0.026763
  0
VERTEX
  8
0
 10
114.763855
 20
74.908641
 42
-0.027737
  0
VERTEX
  8
0
 10
116.322699
 20
75.829266
 42
-0.072407
  0
VERTEX
  8
0
 10
117.549565
 20
76.254226
 42
-0.020209
  0
VERTEX
  8
0
 10
119.023303
 20
76.474656
 42
-0.199744
  0
VERTEX
  8
0
 10
119.611825
 20
76.301442
 42
-0.263960
  0
VERTEX
  8
0
 10
119.809363
 20
75.798291
 42
-0.034334
  0
VERTEX
  8
0
 10
119.558987
 20
74.627500
 42
0.020047
  0
VERTEX
  8
0
 10
119.283517
 20
73.498080
 42
0.005758
  0
VERTEX
  8
0
 10
118.947759
 20
71.729641
 42
0.005784
  0
VERTEX
  8
0
 10
118.614832
 20
69.724596
 42
0.006123
  0
VERTEX
  8
0
 10
118.335099
 20
67.750000
 42
0.030978
  0
VERTEX
  8
0
 10
118.094147
 20
64.134674
 42
0.354586
  0
VERTEX
  8
0
 10
118.927452
 20
63.097631
 42
0.223871
  0
VERTEX
  8
0
 10
120.551827
 20
63.474690
 42
0.016538
  0
VERTEX
  8
0
 10
124.131680
 20
66.500000
 42
-0.017455
  0
VERTEX
  8
0
 10
126.537268
 20
68.525399
 42
-0.049468
  0
VERTEX
  8
0
 10
128.386840
 20
69.700616
 42
-0.123493
  0
VERTEX
  8
0
 10
129.516988
 20
69.955054
 42
-0.407115
  0
VERTEX
  8
0
 10
130.000000
 20
69.460162
 42
-0.101780
  0
VERTEX
  8
0
 10
129.925962
 20
69.100213
 42
-0.004257
  0
VERTEX
  8
0
 10
129.396281
 20
67.895514
 42
-0.007205
  0
VERTEX
  8
0
 10
128.732181
 20
66.474425
 42
-0.005043
  0
VERTEX
  8
0
 10
127.944785
 20
64.891770
 42
0.046361
  0
VERTEX
  8
0
 10
126.239211
 20
60.610246
 42
0.041094
  0
VERTEX
  8
0
 10
125.265591
 20
55.910930
 42
0.043550
  0
VERTEX
  8
0
 10
125.130102
 20
52.053117
 42
0.399081
  0
VERTEX
  8
0
 10
126.239389
 20
51.000000
 42
0.155851
  0
VERTEX
  8
0
 10
126.911494
 20
51.214711
 42
0.053628
  0
VERTEX
  8
0
 10
127.684336
 20
51.900214
 42
0.047023
  0
VERTEX
  8
0
 10
128.428971
 20
52.891850
 42
0.039373
  0
VERTEX
  8
0
 10
129.026741
 20
54.064560
 42
-0.088276
  0
VERTEX
  8
0
 10
130.542898
 20
56.436265
 42
-0.033676
  0
VERTEX
  8
0
 10
133.399450
 20
59.143579
 42
-0.031883
  0
VERTEX
  8
0
 10
136.487375
 20
61.383279
 42
-0.141882
  0
VERTEX
  8
0
 10
138.616982
 20
62.000000
 42
-0.318699
  0
VERTEX
  8
0
 10
139.114407
 20
61.647098
 42
-0.058907
  0
VERTEX
  8
0
 10
139.372774
 20
60.486410
 42
-0.034880
  0
VERTEX
  8
0
 10
139.433283
 20
58.573257
 42
-0.010497
  0
VERTEX
  8
0
 10
139.261205
 20
55.665287
 42
0.029348
  0
VERTEX
  8
0
 10
139.170433
 20
51.428237
 42
0.053905
  0
VERTEX
  8
0
 10
139.668427
 20
48.017055
 42
0.077635
  0
VERTEX
  8
0
 10
140.644903
 20
45.755728
 42
0.257529
  0
VERTEX
  8
0
 10
142.014860
 20
45.000000
 42
0.209445
  0
VERTEX
  8
0
 10
142.489820
 20
45.208084
 42
0.024183
  0
VERTEX
  8
0
 10
143.254326
 20
46.122034
 42
0.025826
  0
VERTEX
  8
0
 10
144.092770
 20
47.356572
 42
0.018305
  0
VERTEX
  8
0
 10
144.908012
 20
48.819689
 42
-0.086706
  0
VERTEX
  8
0
 10
148.274342
 20
53.296709
 42
-0.079522
  0
VERTEX
  8
0
 10
153.054098
 20
56.527436
 42
-0.048122
  0
VERTEX
  8
0
 10
160.534935
 20
59.169480
 42
-0.011982
  0
VERTEX
  8
0
 10
173.214829
 20
61.996545
 42
0.055081
  0
VERTEX
  8
0
 10
178.143089
 20
63.550547
 42
0.112847
  0
VERTEX
  8
0
 10
181.374084
 20
65.957418
 42
0.105623
  0
VERTEX
  8
0
 10
183.366887
 20
69.645983
 42
0.044438
  0
VERTEX
  8
0
 10
184.470681
 20
75.203643
 42
-0.031307
  0
VERTEX
  8
0
 10
185.032165
 20
78.477912
 42
-0.013127
  0
VERTEX
  8
0
 10
186.176729
 20
82.803465
 42
-0.012325
  0
VERTEX
  8
0
 10
187.718685
 20
87.624165
 42
-0.011341
  0
VERTEX
  8
0
 10
189.536759
 20
92.500000
 42
0.007295
  0
VERTEX
  8
0
 10
191.414891
 20
97.415051
 42
0.004839
  0
VERTEX
  8
0
 10
193.432762
 20
103.106283
 42
0.004870
  0
VERTEX
  8
0
 10
195.285469
 20
108.672561
 42
0.009454
  0
VERTEX
  8
0
 10
196.637505
 20
113.159686
 42
0.000000
  0
VERTEX
  8
0
 10
199.349987
 20
122.819373
 42
0.000000
  0
VERTEX
  8
0
 10
204.924994
 20
122.357649
 42
-0.008150
  0
VERTEX
  8
0
 10
212.255213
 20
121.630087
 42
-0.068143
  0
VERTEX
  8
0
 10
215.474529
 20
120.803578
 42
-0.107457
  0
VERTEX
  8
0
 10
217.726978
 20
119.257709
 42
-0.033072
  0
VERTEX
  8
0
 10
220.361827
 20
116.059442
 42
0.025050
  0
VERTEX
  8
0
 10
223.289968
 20
112.386747
 42
0.013389
  0
VERTEX
  8
0
 10
227.247462
 20
108.138176
 42
0.011565
  0
VERTEX
  8
0
 10
232.149803
 20
103.375514
 42
0.007600
  0
VERTEX
  8
0
 10
238.000000
 20
98.112421
 42
0.000000
  0
VERTEX
  8
0
 10
241.500000
 20
95.058627
 42
0.000000
  0
VERTEX
  8
0
 10
233.908931
 20
95.029313
 42
0.025998
  0
VERTEX
  8
0
 10
227.530675
 20
94.672743
 42
0.041039
  0
VERTEX
  8
0
 10
222.151999
 20
93.639086
 42
0.044417
  0
VERTEX
  8
0
 10
217.330634
 20
91.820622
 42
0.038317
  0
VERTEX
  8
0
 10
212.647956
 20
89.101796
 42
0.042071
  0
VERTEX
  8
0
 10
208.704895
 20
85.869058
 42
0.029647
  0
VERTEX
  8
0
 10
204.834469
 20
81.636161
 42
0.027300
  0
VERTEX
  8
0
 10
201.793885
 20
77.438058
 42
0.144046
  0
VERTEX
  8
0
 10
201.000000
 20
74.739566
 42
0.135306
  0
VERTEX
  8
0
 10
201.305933
 20
73.629741
 42
0.279268
  0
VERTEX
  8
0
 10
202.071989
 20
73.222924
 42
0.075260
  0
VERTEX
  8
0
 10
203.694969
 20
73.563280
 42
0.006284
  0
VERTEX
  8
0
 10
207.711835
 20
75.119045
 42
-0.020502
  0
VERTEX
  8
0
 10
208.984642
 20
75.570840
 42
-0.029011
  0
VERTEX
  8
0
 10
210.151718
 20
75.859020
 42
-0.028679
  0
VERTEX
  8
0
 10
211.096793
 20
75.979437
 42
-0.217010
  0
VERTEX
  8
0
 10
211.507584
 20
75.825749
 42
-0.261827
  0
VERTEX
  8
0
 10
211.632511
 20
75.379980
 42
-0.017508
  0
VERTEX
  8
0
 10
211.260430
 20
74.055820
 42
-0.021615
  0
VERTEX
  8
0
 10
210.664321
 20
72.433684
 42
-0.014217
  0
VERTEX
  8
0
 10
209.846244
 20
70.620423
 42
0.015911
  0
VERTEX
  8
0
 10
208.865107
 20
68.425948
 42
0.045962
  0
VERTEX
  8
0
 10
208.378642
 20
66.835082
 42
0.073269
  0
VERTEX
  8
0
 10
208.311574
 20
65.692287
 42
0.176227
  0
VERTEX
  8
0
 10
208.664780
 20
64.935220
 42
0.101746
  0
VERTEX
  8
0
 10
209.244981
 20
64.552927
 42
0.145679
  0
VERTEX
  8
0
 10
209.854742
 20
64.497600
 42
0.107072
  0
VERTEX
  8
0
 10
210.533374
 20
64.794303
 42
0.039997
  0
VERTEX
  8
0
 10
211.329241
 20
65.472098
 42
-0.071038
  0
VERTEX
  8
0
 10
213.575327
 20
67.156869
 42
-0.036182
  0
VERTEX
  8
0
 10
216.790309
 20
68.628953
 42
-0.035709
  0
VERTEX
  8
0
 10
220.298027
 20
69.659184
 42
-0.053622
  0
VERTEX
  8
0
 10
223.466838
 20
70.000000
 42
0.000000
  0
VERTEX
  8
0
 10
226.997914
 20
70.000000
 42
0.000000
  0
VERTEX
  8
0
 10
222.482238
 20
64.185101
 42
0.026135
  0
VERTEX
  8
0
 10
219.495204
 20
59.893342
 42
0.038870
  0
VERTEX
  8
0
 10
217.390246
 20
55.831002
 42
0.044427
  0
VERTEX
  8
0
 10
216.317394
 20
52.499854
 42
0.257521
  0
VERTEX
  8
0
 10
216.812101
 20
50.787899
 42
0.256979
  0
VERTEX
  8
0
 10
217.331107
 20
50.637349
 42
0.041804
  0
VERTEX
  8
0
 10
218.368341
 20
50.963103
 42
0.037207
  0
VERTEX
  8
0
 10
219.639628
 20
51.596520
 42
0.024757
  0
VERTEX
  8
0
 10
220.996708
 20
52.497571
 42
-0.031972
  0
VERTEX
  8
0
 10
222.485418
 20
53.455382
 42
-0.027877
  0
VERTEX
  8
0
 10
224.152548
 20
54.264912
 42
-0.028885
  0
VERTEX
  8
0
 10
225.746219
 20
54.826059
 42
-0.070315
  0
VERTEX
  8
0
 10
226.976968
 20
55.000000
 42
-0.070986
  0
VERTEX
  8
0
 10
228.503157
 20
54.782227
 42
-0.251018
  0
VERTEX
  8
0
 10
229.186890
 20
54.112112
 42
-0.085340
  0
VERTEX
  8
0
 10
229.386068
 20
52.626958
 42
-0.004874
  0
VERTEX
  8
0
 10
229.169842
 20
48.000000
 42
0.013173
  0
VERTEX
  8
0
 10
229.022629
 20
43.110870
 42
0.160652
  0
VERTEX
  8
0
 10
229.594904
 20
41.353561
 42
0.466364
  0
VERTEX
  8
0
 10
230.642270
 20
41.285771
 42
0.045690
  0
VERTEX
  8
0
 10
232.439324
 20
43.547741
 42
-0.065127
  0
VERTEX
  8
0
 10
234.192229
 20
45.586670
 42
-0.030258
  0
VERTEX
  8
0
 10
236.932623
 20
47.758290
 42
-0.028354
  0
VERTEX
  8
0
 10
239.774227
 20
49.511960
 42
-0.123890
  0
VERTEX
  8
0
 10
241.673202
 20
49.996262
 42
-0.289872
  0
VERTEX
  8
0
 10
242.174875
 20
49.680973
 42
-0.060880
  0
VERTEX
  8
0
 10
242.520280
 20
48.651841
 42
-0.039808
  0
VERTEX
  8
0
 10
242.720914
 20
47.023941
 42
-0.015416
  0
VERTEX
  8
0
 10
242.748712
 20
44.750000
 42
0.033268
  0
VERTEX
  8
0
 10
243.048242
 20
38.502412
 42
0.166988
  0
VERTEX
  8
0
 10
244.534489
 20
35.388695
 42
0.429761
  0
VERTEX
  8
0
 10
246.528817
 20
35.423121
 42
0.088359
  0
VERTEX
  8
0
 10
248.640101
 20
38.750000
 42
-0.059487
  0
VERTEX
  8
0
 10
250.778034
 20
42.589614
 42
-0.038182
  0
VERTEX
  8
0
 10
254.079944
 20
46.484280
 42
-0.036932
  0
VERTEX
  8
0
 10
258.102339
 20
49.993887
 42
-0.042721
  0
VERTEX
  8
0
 10
262.414489
 20
52.686597
 42
-0.040512
  0
VERTEX
  8
0
 10
265.358684
 20
53.903129
 42
-0.009329
  0
VERTEX
  8
0
 10
270.507439
 20
55.451888
 42
-0.009216
  0
VERTEX
  8
0
 10
276.732820
 20
57.075377
 42
-0.007316
  0
VERTEX
  8
0
 10
283.511598
 20
58.605770
 42
0.000000
  0
VERTEX
  8
0
 10
299.694219
 20
62.011143
 42
0.000000
  0
VERTEX
  8
0
 10
307.258766
 20
58.516107
 42
0.029685
  0
VERTEX
  8
0
 10
325.335541
 20
51.432770
 42
0.036727
  0
VERTEX
  8
0
 10
342.892841
 20
47.123450
 42
0.040554
  0
VERTEX
  8
0
 10
359.151035
 20
45.718490
 42
0.060395
  0
VERTEX
  8
0
 10
373.319055
 20
47.362307
 42
0.028007
  0
VERTEX
  8
0
 10
379.687045
 20
49.277522
 42
0.017594
  0
VERTEX
  8
0
 10
386.898639
 20
52.185850
 42
0.017569
  0
VERTEX
  8
0
 10
393.911342
 20
55.605026
 42
0.027236
  0
VERTEX
  8
0
 10
399.674654
 20
59.085213
 42
0.043124
  0
VERTEX
  8
0
 10
409.895129
 20
67.416256
 42
0.031389
  0
VERTEX
  8
0
 10
419.765510
 20
78.270835
 42
0.031531
  0
VERTEX
  8
0
 10
428.138017
 20
90.195467
 42
0.045482
  0
VERTEX
  8
0
 10
433.835370
 20
101.746961
 42
0.044793
  0
VERTEX
  8
0
 10
437.829918
 20
115.755585
 42
0.051018
  0
VERTEX
  8
0
 10
439.031822
 20
129.647325
 42
0.053532
  0
VERTEX
  8
0
 10
437.399578
 20
142.893614
 42
0.059548
  0
VERTEX
  8
0
 10
433.002350
 20
154.995344
 42
0.017994
  0
VERTEX
  8
0
 10
431.250815
 20
158.175289
 42
0.004389
  0
VERTEX
  8
0
 10
428.130786
 20
163.284530
 42
0.004493
  0
VERTEX
  8
0
 10
424.447779
 20
169.081607
 42
0.004465
  0
VERTEX
  8
0
 10
420.653640
 20
174.823692
 42
-0.008458
  0
VERTEX
  8
0
 10
416.832763
 20
180.707872
 42
-0.007592
  0
VERTEX
  8
0
 10
413.069641
 20
186.931724
 42
-0.007634
  0
VERTEX
  8
0
 10
409.863045
 20
192.619359
 42
-0.023593
  0
VERTEX
  8
0
 10
407.941173
 20
196.588616
 42
-0.013913
  0
VERTEX
  8
0
 10
405.998533
 20
201.510585
 42
-0.042555
  0
VERTEX
  8
0
 10
405.066219
 20
204.972893
 42
-0.035977
  0
VERTEX
  8
0
 10
404.654472
 20
208.840705
 42
-0.007839
  0
VERTEX
  8
0
 10
404.530671
 20
215.548377
 42
-0.007041
  0
VERTEX
  8
0
 10
404.610486
 20
222.607584
 42
-0.044110
  0
VERTEX
  8
0
 10
405.018975
 20
226.189545
 42
-0.052019
  0
VERTEX
  8
0
 10
406.031276
 20
229.397639
 42
-0.012004
  0
VERTEX
  8
0
 10
408.416051
 20
234.548377
 42
-0.041335
  0
VERTEX
  8
0
 10
412.551490
 20
241.443575
 42
-0.032790
  0
VERTEX
  8
0
 10
418.072359
 20
248.154396
 42
-0.029887
  0
VERTEX
  8
0
 10
424.969397
 20
254.671287
 42
-0.022703
  0
VERTEX
  8
0
 10
433.240049
 20
260.983653
 42
0.003873
  0
VERTEX
  8
0
 10
436.188071
 20
263.062820
 42
0.006526
  0
VERTEX
  8
0
 10
438.624321
 20
264.858058
 42
0.001734
  0
VERTEX
  8
0
 10
440.687340
 20
266.431508
 42
0.452930
  0
VERTEX
  8
0
 10
440.700482
 20
266.632852
 42
0.261803
  0
VERTEX
  8
0
 10
439.522827
 20
266.962947
 42
0.004680
  0
VERTEX
  8
0
 10
432.937641
 20
265.294188
 42
0.011476
  0
VERTEX
  8
0
 10
426.680589
 20
263.491576
 42
0.041817
  0
VERTEX
  8
0
 10
422.856019
 20
261.932706
 42
0.044972
  0
VERTEX
  8
0
 10
414.590851
 20
256.745040
 42
0.029366
  0
VERTEX
  8
0
 10
406.040653
 20
249.409207
 42
0.029505
  0
VERTEX
  8
0
 10
398.488568
 20
241.204193
 42
0.048926
  0
VERTEX
  8
0
 10
393.281192
 20
233.379831
 42
0.074734
  0
VERTEX
  8
0
 10
387.798586
 20
217.893185
 42
0.077781
  0
VERTEX
  8
0
 10
387.218291
 20
201.696740
 42
0.065202
  0
VERTEX
  8
0
 10
391.773358
 20
183.832026
 42
0.034758
  0
VERTEX
  8
0
 10
401.696539
 20
163.256088
 42
-0.010049
  0
VERTEX
  8
0
 10
406.987494
 20
153.542319
 42
-0.040815
  0
VERTEX
  8
0
 10
409.589266
 20
147.337947
 42
-0.056732
  0
VERTEX
  8
0
 10
410.710991
 20
141.864590
 42
-0.033654
  0
VERTEX
  8
0
 10
410.854488
 20
135.197513
 42
-0.047399
  0
VERTEX
  8
0
 10
409.788874
 20
127.662502
 42
-0.054391
  0
VERTEX
  8
0
 10
407.339198
 20
120.822167
 42
-0.053245
  0
VERTEX
  8
0
 10
403.418798
 20
114.554509
 42
-0.042503
  0
VERTEX
  8
0
 10
397.980864
 20
108.720801
 42
-0.074094
  0
VERTEX
  8
0
 10
384.688805
 20
99.866691
 42
-0.097570
  0
VERTEX
  8
0
 10
370.589417
 20
96.338803
 42
-0.103886
  0
VERTEX
  8
0
 10
356.879283
 20
98.500327
 42
-0.094547
  0
VERTEX
  8
0
 10
344.670718
 20
106.017968
 42
-0.044026
  0
VERTEX
  8
0
 10
340.160106
 20
110.934809
 42
-0.040080
  0
VERTEX
  8
0
 10
336.419779
 20
116.716356
 42
-0.027929
  0
VERTEX
  8
0
 10
332.679208
 20
124.697780
 42
-0.008824
  0
VERTEX
  8
0
 10
327.981485
 20
137.000000
 42
0.020676
  0
VERTEX
  8
0
 10
319.766366
 20
157.072691
 42
0.032004
  0
VERTEX
  8
0
 10
310.891365
 20
173.560298
 42
0.037294
  0
VERTEX
  8
0
 10
301.303147
 20
186.646288
 42
0.054881
  0
VERTEX
  8
0
 10
290.925442
 20
196.396800
 42
0.000000
  0
VERTEX
  8
0
 10
285.125109
 20
200.756989
 42
0.000000
  0
VERTEX
  8
0
 10
288.812554
 20
207.121208
 42
-0.042051
  0
VERTEX
  8
0
 10
293.607215
 20
213.993165
 42
-0.025715
  0
VERTEX
  8
0
 10
300.311497
 20
221.267196
 42
-0.025836
  0
VERTEX
  8
0
 10
307.563449
 20
227.666982
 42
-0.051502
  0
VERTEX
  8
0
 10
314.007562
 20
231.783682
 42
-0.022760
  0
VERTEX
  8
0
 10
320.065055
 20
234.489216
 42
-0.028083
  0
VERTEX
  8
0
 10
325.937995
 20
236.424992
 42
-0.030022
  0
VERTEX
  8
0
 10
331.624159
 20
237.590775
 42
-0.035035
  0
VERTEX
  8
0
 10
337.121775
 20
237.988131
 42
-0.044149
  0
VERTEX
  8
0
 10
342.902557
 20
237.488996
 42
-0.013631
  0
VERTEX
  8
0
 10
351.474051
 20
235.736899
 42
-0.013402
  0
VERTEX
  8
0
 10
359.894442
 20
233.535655
 42
-0.048726
  0
VERTEX
  8
0
 10
365.023985
 20
231.487597
 42
0.000000
  0
VERTEX
  8
0
 10
368.290296
 20
229.798522
 42
0.000000
  0
VERTEX
  8
0
 10
367.615633
 20
233.149261
 42
-0.066470
  0
VERTEX
  8
0
 10
366.353638
 20
252.258337
 42
-0.093021
  0
VERTEX
  8
0
 10
370.615567
 20
268.790205
 42
-0.096155
  0
VERTEX
  8
0
 10
380.430187
 20
282.264360
 42
-0.075714
  0
VERTEX
  8
0
 10
395.377703
 20
292.455473
 42
-0.025299
  0
VERTEX
  8
0
 10
404.426530
 20
296.245847
 42
-0.035170
  0
VERTEX
  8
0
 10
412.878198
 20
298.637560
 42
-0.030384
  0
VERTEX
  8
0
 10
422.471635
 20
300.035645
 42
-0.013472
  0
VERTEX
  8
0
 10
435.250000
 20
300.765077
 42
0.005068
  0
VERTEX
  8
0
 10
441.683943
 20
301.023951
 42
0.010657
  0
VERTEX
  8
0
 10
446.672569
 20
301.382064
 42
0.005168
  0
VERTEX
  8
0
 10
450.603769
 20
301.789660
 42
0.381305
  0
VERTEX
  8
0
 10
451.000000
 20
302.233690
 42
0.150829
  0
VERTEX
  8
0
 10
450.809618
 20
302.850450
 42
0.007611
  0
VERTEX
  8
0
 10
449.582140
 20
304.591735
 42
0.011632
  0
VERTEX
  8
0
 10
448.022467
 20
306.632737
 42
0.008114
  0
VERTEX
  8
0
 10
446.173242
 20
308.864213
 42
-0.021681
  0
VERTEX
  8
0
 10
439.796032
 20
316.999055
 42
-0.025876
  0
VERTEX
  8
0
 10
434.540263
 20
325.202884
 42
-0.026046
  0
VERTEX
  8
0
 10
430.187510
 20
333.858481
 42
-0.022504
  0
VERTEX
  8
0
 10
426.519321
 20
343.347706
 42
-0.035495
  0
VERTEX
  8
0
 10
423.400349
 20
355.416022
 42
-0.054457
  0
VERTEX
  8
0
 10
422.612077
 20
366.174091
 42
-0.057378
  0
VERTEX
  8
0
 10
424.165309
 20
376.430680
 42
-0.045172
  0
VERTEX
  8
0
 10
428.075883
 20
386.972927
 42
-0.048780
  0
VERTEX
  8
0
 10
433.303570
 20
395.635481
 42
-0.037600
  0
VERTEX
  8
0
 10
440.548863
 20
403.969593
 42
-0.036489
  0
VERTEX
  8
0
 10
449.230340
 20
411.387327
 42
-0.038496
  0
VERTEX
  8
0
 10
458.750000
 20
417.318109
 42
0.006562
  0
VERTEX
  8
0
 10
462.295598
 20
419.224496
 42
0.010331
  0
VERTEX
  8
0
 10
465.282812
 20
420.963214
 42
0.004691
  0
VERTEX
  8
0
 10
467.745390
 20
422.497407
 42
0.256475
  0
VERTEX
  8
0
 10
468.000000
 20
422.961120
 42
0.398848
  0
VERTEX
  8
0
 10
465.268283
 20
425.840864
 42
0.006143
  0
VERTEX
  8
0
 10
440.318516
 20
426.850922
 42
0.014821
  0
VERTEX
  8
0
 10
414.608899
 20
426.813290
 42
0.024590
  0
VERTEX
  8
0
 10
393.000000
 20
425.074931
 42
0.033098
  0
VERTEX
  8
0
 10
355.078072
 20
417.560779
 42
0.037667
  0
VERTEX
  8
0
 10
320.141161
 20
405.316790
 42
0.040394
  0
VERTEX
  8
0
 10
289.780794
 20
389.000760
 42
0.054171
  0
VERTEX
  8
0
 10
265.544470
 20
369.317168
 42
0.026254
  0
VERTEX
  8
0
 10
256.709566
 20
359.404176
 42
0.039690
  0
VERTEX
  8
0
 10
250.222637
 20
349.842898
 42
0.038999
  0
VERTEX
  8
0
 10
245.251255
 20
339.250738
 42
0.024243
  0
VERTEX
  8
0
 10
241.030009
 20
326.180490
 42
-0.011053
  0
VERTEX
  8
0
 10
237.869831
 20
315.434639
 42
-0.018375
  0
VERTEX
  8
0
 10
234.678719
 20
306.551324
 42
-0.020839
  0
VERTEX
  8
0
 10
231.183025
 20
298.792072
 42
-0.021980
  0
VERTEX
  8
0
 10
227.109713
 20
291.491281
 42
-0.030523
  0
VERTEX
  8
0
 10
220.047345
 20
281.469808
 42
-0.032661
  0
VERTEX
  8
0
 10
211.963778
 20
272.620671
 42
-0.033017
  0
VERTEX
  8
0
 10
202.883516
 20
264.983800
 42
-0.032679
  0
VERTEX
  8
0
 10
192.846770
 20
258.579918
 42
-0.013480
  0
VERTEX
  8
0
 10
186.437027
 20
255.278459
 42
-0.282164
  0
VERTEX
  8
0
 10
184.382844
 20
255.487384
 42
-0.214589
  0
VERTEX
  8
0
 10
183.290775
 20
257.502458
 42
-0.008132
  0
VERTEX
  8
0
 10
182.786273
 20
266.250000
 42
0.009707
  0
VERTEX
  8
0
 10
182.428323
 20
272.134102
 42
0.020589
  0
VERTEX
  8
0
 10
181.875824
 20
276.664875
 42
0.024110
  0
VERTEX
  8
0
 10
181.022834
 20
280.652601
 42
0.020127
  0
VERTEX
  8
0
 10
179.746101
 20
284.791825
 42
0.000000
  0
VERTEX
  8
0
 10
177.171326
 20
292.083650
 42
0.000000
  0
VERTEX
  8
0
 10
180.043877
 20
299.291825
 42
0.006692
  0
VERTEX
  8
0
 10
181.260662
 20
302.468112
 42
0.004762
  0
VERTEX
  8
0
 10
182.542382
 20
306.057978
 42
0.004808
  0
VERTEX
  8
0
 10
183.699918
 20
309.507104
 42
0.010201
  0
VERTEX
  8
0
 10
184.515631
 20
312.203419
 42
-0.007218
  0
VERTEX
  8
0
 10
185.603112
 20
315.876987
 42
-0.110198
  0
VERTEX
  8
0
 10
186.259395
 20
317.018556
 42
-0.251193
  0
VERTEX
  8
0
 10
187.146206
 20
317.329590
 42
-0.051454
  0
VERTEX
  8
0
 10
188.807417
 20
316.891774
 42
-0.034741
  0
VERTEX
  8
0
 10
193.152362
 20
314.899280
 42
-0.035846
  0
VERTEX
  8
0
 10
197.131962
 20
312.342420
 42
-0.036309
  0
VERTEX
  8
0
 10
200.658810
 20
309.278182
 42
-0.037778
  0
VERTEX
  8
0
 10
203.654836
 20
305.773877
 42
0.000000
  0
VERTEX
  8
0
 10
207.500000
 20
300.520523
 42
0.000000
  0
VERTEX
  8
0
 10
207.812781
 20
303.752517
 42
0.090837
  0
VERTEX
  8
0
 10
207.172183
 20
311.297564
 42
0.023120
  0
VERTEX
  8
0
 10
203.385786
 20
323.032732
 42
0.024474
  0
VERTEX
  8
0
 10
198.257039
 20
334.921325
 42
0.047957
  0
VERTEX
  8
0
 10
192.855399
 20
343.691044
 42
-0.017780
  0
VERTEX
  8
0
 10
190.473151
 20
347.082553
 42
-0.030025
  0
VERTEX
  8
0
 10
188.757153
 20
350.102265
 42
-0.032248
  0
VERTEX
  8
0
 10
187.497964
 20
353.146062
 42
-0.024978
  0
VERTEX
  8
0
 10
186.513783
 20
356.596801
 42
-0.004373
  0
VERTEX
  8
0
 10
185.192591
 20
362.528961
 42
-0.111696
  0
VERTEX
  8
0
 10
185.212434
 20
364.172053
 42
-0.349370
  0
VERTEX
  8
0
 10
186.031283
 20
364.812862
 42
-0.044340
  0
VERTEX
  8
0
 10
188.421484
 20
364.580707
 42
-0.020324
  0
VERTEX
  8
0
 10
193.888189
 20
363.323249
 42
-0.027121
  0
VERTEX
  8
0
 10
198.720856
 20
361.716602
 42
-0.029956
  0
VERTEX
  8
0
 10
202.916939
 20
359.766315
 42
-0.039269
  0
VERTEX
  8
0
 10
206.466353
 20
357.473821
 42
0.010663
  0
VERTEX
  8
0
 10
208.288683
 20
356.143336
 42
0.014274
  0
VERTEX
  8
0
 10
209.999713
 20
355.020435
 42
0.011413
  0
VERTEX
  8
0
 10
211.457791
 20
354.167298
 42
0.127325
  0
VERTEX
  8
0
 10
212.104112
 20
354.000000
 42
0.489003
  0
VERTEX
  8
0
 10
212.349898
 20
354.315926
 42
0.027520
  0
VERTEX
  8
0
 10
211.921749
 20
355.683165
 42
0.025280
  0
VERTEX
  8
0
 10
211.120576
 20
357.531297
 42
0.013552
  0
VERTEX
  8
0
 10
209.957149
 20
359.729922
 42
0.037330
  0
VERTEX
  8
0
 10
202.247945
 20
371.283036
 42
0.035959
  0
VERTEX
  8
0
 10
192.817339
 20
381.716784
 42
0.037023
  0
VERTEX
  8
0
 10
182.309511
 20
390.388472
 42
0.046686
  0
VERTEX
  8
0
 10
171.388990
 20
396.679453
 42
0.000000
  0
VERTEX
  8
0
 10
165.841255
 20
399.219290
 42
0.000000
  0
VERTEX
  8
0
 10
173.170627
 20
403.924851
 42
0.045356
  0
VERTEX
  8
0
 10
180.274082
 20
409.453728
 42
0.046527
  0
VERTEX
  8
0
 10
186.197566
 20
416.129408
 42
0.043552
  0
VERTEX
  8
0
 10
191.091796
 20
424.189115
 42
0.031840
  0
VERTEX
  8
0
 10
195.123324
 20
433.858447
 42
0.023636
  0
VERTEX
  8
0
 10
196.337103
 20
438.015215
 42
0.038648
  0
VERTEX
  8
0
 10
196.920049
 20
441.637109
 42
0.048970
  0
VERTEX
  8
0
 10
196.879403
 20
444.253116
 42
0.381377
  0
VERTEX
  8
0
 10
196.042632
 20
445.000000
 42
0.177013
  0
VERTEX
  8
0
 10
195.523265
 20
444.810182
 42
0.018426
  0
VERTEX
  8
0
 10
194.546155
 20
443.922208
 42
0.021078
  0
VERTEX
  8
0
 10
193.432081
 20
442.736252
 42
0.015357
  0
VERTEX
  8
0
 10
192.292632
 20
441.330922
 42
-0.016380
  0
VERTEX
  8
0
 10
187.383671
 20
435.301756
 42
-0.030206
  0
VERTEX
  8
0
 10
182.954355
 20
430.792828
 42
-0.035005
  0
VERTEX
  8
0
 10
178.510888
 20
427.316169
 42
-0.034160
  0
VERTEX
  8
0
 10
173.590535
 20
424.461896
 42
-0.032065
  0
VERTEX
  8
0
 10
167.994991
 20
422.140507
 42
-0.015038
  0
VERTEX
  8
0
 10
160.502344
 20
419.830370
 42
-0.007032
  0
VERTEX
  8
0
 10
152.978984
 20
417.869735
 42
-0.262350
  0
VERTEX
  8
0
 10
151.339076
 20
418.327591
 42
-0.256252
  0
VERTEX
  8
0
 10
151.232910
 20
418.691729
 42
-0.002976
  0
VERTEX
  8
0
 10
151.809840
 20
421.224429
 42
-0.008125
  0
VERTEX
  8
0
 10
152.553232
 20
424.182989
 42
-0.005105
  0
VERTEX
  8
0
 10
153.513461
 20
427.617385
 42
0.018345
  0
VERTEX
  8
0
 10
155.230830
 20
434.452689
 42
0.027707
  0
VERTEX
  8
0
 10
156.172448
 20
440.515920
 42
0.025799
  0
VERTEX
  8
0
 10
156.396528
 20
445.271846
 42
0.316252
  0
VERTEX
  8
0
 10
155.400085
 20
446.676179
 42
0.116886
  0
VERTEX
  8
0
 10
154.906314
 20
446.729902
 42
0.070295
  0
VERTEX
  8
0
 10
154.334665
 20
446.574950
 42
0.064212
  0
VERTEX
  8
0
 10
153.775423
 20
446.244790
 42
0.064046
  0
SEQEND
  0
POLYLINE
  8
0
 66
1
 70
1
  0
VERTEX
  8
0
 10
148.529255
 20
423.897125
 42
-0.007737
  0
VERTEX
  8
0
 10
147.444246
 20
421.252707
 42
-0.012213
  0
VERTEX
  8
0
 10
146.423793
 20
419.023274
 42
-0.006227
  0
VERTEX
  8
0
 10
145.509083
 20
417.205171
 42
-0.276227
  0
VERTEX
  8
0
 10
145.161631
 20
416.990616
 42
0.114341
  0
VERTEX
  8
0
 10
144.717468
 20
416.881038
 42
0.003735
  0
VERTEX
  8
0
 10
143.078729
 20
416.034047
 42
0.006978
  0
VERTEX
  8
0
 10
141.155405
 20
414.987153
 42
0.004776
  0
VERTEX
  8
0
 10
139.000000
 20
413.747388
 42
-0.025832
  0
VERTEX
  8
0
 10
135.696742
 20
412.028198
 42
-0.039068
  0
VERTEX
  8
0
 10
132.653465
 20
410.916879
 42
-0.030813
  0
VERTEX
  8
0
 10
128.986712
 20
410.133719
 42
-0.010066
  0
VERTEX
  8
0
 10
123.500000
 20
409.423748
 42
-0.003604
  0
VERTEX
  8
0
 10
119.636038
 20
409.030813
 42
-0.005670
  0
VERTEX
  8
0
 10
116.312040
 20
408.754970
 42
-0.001804
  0
VERTEX
  8
0
 10
113.443675
 20
408.560061
 42
-0.187531
  0
VERTEX
  8
0
 10
113.072902
 20
408.677407
 42
-0.459489
  0
VERTEX
  8
0
 10
113.034965
 20
409.859244
 42
-0.023117
  0
VERTEX
  8
0
 10
116.391099
 20
412.658798
 42
-0.027811
  0
VERTEX
  8
0
 10
120.753937
 20
415.601450
 42
-0.029551
  0
VERTEX
  8
0
 10
125.331055
 20
417.976793
 42
0.004970
  0
VERTEX
  8
0
 10
134.526827
 20
422.189212
 42
0.015008
  0
VERTEX
  8
0
 10
140.672914
 20
425.307415
 42
0.021653
  0
VERTEX
  8
0
 10
144.904129
 20
427.859991
 42
0.055229
  0
VERTEX
  8
0
 10
147.648593
 20
430.155098
 42
-0.052769
  0
VERTEX
  8
0
 10
149.862507
 20
432.025057
 42
-0.555074
  0
VERTEX
  8
0
 10
150.747437
 20
431.632493
 42
-0.118168
  0
VERTEX
  8
0
 10
150.527217
 20
429.332015
 42
-0.010800
  0
SEQEND
  0
POLYLINE
  8
0
 66
1
 70
1
  0
VERTEX
  8
0
 10
190.000000
 20
430.371727
 42
-0.115360
  0
VERTEX
  8
0
 10
189.900231
 20
429.945060
 42
-0.003357
  0
VERTEX
  8
0
 10
189.060843
 20
428.276626
 42
-0.006590
  0
VERTEX
  8
0
 10
188.027936
 20
426.321415
 42
-0.004474
  0
VERTEX
  8
0
 10
186.802870
 20
424.121727
 42
-0.040214
  0
VERTEX
  8
0
 10
183.117931
 20
418.706211
 42
-0.031169
  0
VERTEX
  8
0
 10
178.305985
 20
413.438157
 42
-0.030094
  0
VERTEX
  8
0
 10
172.671085
 20
408.613116
 42
-0.030474
  0
VERTEX
  8
0
 10
166.520417
 20
404.521335
 42
0.009584
  0
VERTEX
  8
0
 10
159.763751
 20
400.422679
 42
0.026305
  0
VERTEX
  8
0
 10
155.215261
 20
397.195818
 42
0.036538
  0
VERTEX
  8
0
 10
151.998592
 20
394.242908
 42
0.048032
  0
VERTEX
  8
0
 10
149.559487
 20
391.094233
 42
-0.067702
  0
VERTEX
  8
0
 10
147.054560
 20
388.109965
 42
-0.116697
  0
VERTEX
  8
0
 10
144.230546
 20
386.548957
 42
-0.116605
  0
VERTEX
  8
0
 10
141.004817
 20
386.418383
 42
-0.067529
  0
VERTEX
  8
0
 10
137.310372
 20
387.669631
 42
-0.080995
  0
VERTEX
  8
0
 10
132.608251
 20
391.048198
 42
-0.126681
  0
VERTEX
  8
0
 10
130.085463
 20
395.313785
 42
-0.144426
  0
VERTEX
  8
0
 10
130.107242
 20
399.855639
 42
-0.118632
  0
VERTEX
  8
0
 10
132.559747
 20
404.062362
 42
-0.038958
  0
VERTEX
  8
0
 10
136.927155
 20
407.962482
 42
-0.046216
  0
VERTEX
  8
0
 10
141.615426
 20
410.893268
 42
-0.044425
  0
VERTEX
  8
0
 10
146.918532
 20
412.996256
 42
-0.031926
  0
VERTEX
  8
0
 10
153.133156
 20
414.418063
 42
0.020242
  0
VERTEX
  8
0
 10
164.064088
 20
416.651633
 42
0.037183
  0
VERTEX
  8
0
 10
172.693835
 20
419.476712
 42
0.045128
  0
VERTEX
  8
0
 10
179.553716
 20
423.055851
 42
0.057546
  0
VERTEX
  8
0
 10
185.069714
 20
427.571927
 42
-0.015748
  0
VERTEX
  8
0
 10
187.177930
 20
429.614252
 42
-0.055448
  0
VERTEX
  8
0
 10
188.704153
 20
430.720624
 42
-0.175476
  0
VERTEX
  8
0
 10
189.583002
 20
430.870625
 42
-0.362885
  0
SEQEND
  0
POLYLINE
  8
0
 66
1
 70
1
  0
VERTEX
  8
0
 10
451.581787
 20
422.000000
 42
-0.015998
  0
VERTEX
  8
0
 10
453.275503
 20
421.945793
 42
-0.026141
  0
VERTEX
  8
0
 10
454.702150
 20
421.779183
 42
-0.024168
  0
VERTEX
  8
0
 10
455.774743
 20
421.542873
 42
-0.338513
  0
VERTEX
  8
0
 10
456.000000
 20
421.248283
 42
-0.232209
  0
VERTEX
  8
0
 10
455.802815
 20
420.846592
 42
-0.012937
  0
VERTEX
  8
0
 10
454.645827
 20
419.998995
 42
-0.017776
  0
VERTEX
  8
0
 10
453.156505
 20
419.042610
 42
-0.011888
  0
VERTEX
  8
0
 10
451.390048
 20
418.050992
 42
0.050128
  0
VERTEX
  8
0
 10
445.873365
 20
414.373868
 42
0.019766
  0
VERTEX
  8
0
 10
439.050892
 20
408.297536
 42
0.019944
  0
VERTEX
  8
0
 10
432.608336
 20
401.570110
 42
0.040534
  0
VERTEX
  8
0
 10
428.221515
 20
395.713272
 42
0.052013
  0
VERTEX
  8
0
 10
421.964046
 20
383.016734
 42
0.062857
  0
VERTEX
  8
0
 10
418.957140
 20
370.083086
 42
0.061226
  0
VERTEX
  8
0
 10
419.220309
 20
356.532702
 42
0.045894
  0
VERTEX
  8
0
 10
422.675850
 20
342.000000
 42
0.023501
  0
VERTEX
  8
0
 10
425.646922
 20
334.388669
 42
0.016827
  0
VERTEX
  8
0
 10
429.644941
 20
326.171054
 42
0.016920
  0
VERTEX
  8
0
 10
434.143547
 20
318.319400
 42
0.025437
  0
VERTEX
  8
0
 10
438.631659
 20
311.828900
 42
0.000000
  0
VERTEX
  8
0
 10
443.390608
 20
305.644288
 42
0.000000
  0
VERTEX
  8
0
 10
435.695304
 20
309.892190
 42
0.004871
  0
VERTEX
  8
0
 10
432.743743
 20
311.484174
 42
0.008475
  0
VERTEX
  8
0
 10
430.260496
 20
312.739196
 42
0.003279
  0
VERTEX
  8
0
 10
428.176865
 20
313.731469
 42
0.549125
  0
VERTEX
  8
0
 10
428.000000
 20
313.618987
 42
0.252106
  0
VERTEX
  8
0
 10
428.162152
 20
313.317832
 42
0.003410
  0
VERTEX
  8
0
 10
429.982813
 20
312.135018
 42
0.008689
  0
VERTEX
  8
0
 10
432.162563
 20
310.792776
 42
0.005485
  0
VERTEX
  8
0
 10
434.750000
 20
309.298941
 42
0.000000
  0
VERTEX
  8
0
 10
441.500000
 20
305.500000
 42
0.000000
  0
VERTEX
  8
0
 10
430.000000
 20
304.851570
 42
0.043863
  0
VERTEX
  8
0
 10
408.719084
 20
301.765845
 42
0.063622
  0
VERTEX
  8
0
 10
390.964178
 20
295.108375
 42
0.072358
  0
VERTEX
  8
0
 10
377.172451
 20
285.046769
 42
0.083238
  0
VERTEX
  8
0
 10
367.583473
 20
271.894226
 42
0.037451
  0
VERTEX
  8
0
 10
365.006588
 20
265.607460
 42
0.030225
  0
VERTEX
  8
0
 10
363.174222
 20
258.540615
 42
0.030470
  0
VERTEX
  8
0
 10
362.220866
 20
251.379439
 42
0.040487
  0
VERTEX
  8
0
 10
362.283254
 20
244.812849
 42
-0.010494
  0
VERTEX
  8
0
 10
362.438274
 20
242.584073
 42
-0.017625
  0
VERTEX
  8
0
 10
362.463055
 20
240.708050
 42
-0.011923
  0
VERTEX
  8
0
 10
362.394952
 20
239.224794
 42
-0.394724
  0
VERTEX
  8
0
 10
362.155172
 20
239.001788
 42
-0.220112
  0
VERTEX
  8
0
 10
361.787363
 20
239.173171
 42
-0.009706
  0
VERTEX
  8
0
 10
360.875763
 20
240.295803
 42
-0.014877
  0
VERTEX
  8
0
 10
359.832634
 20
241.717909
 42
-0.009919
  0
VERTEX
  8
0
 10
358.719766
 20
243.404436
 42
0.011685
  0
VERTEX
  8
0
 10
357.533759
 20
245.188069
 42
0.011802
  0
VERTEX
  8
0
 10
356.269516
 20
246.908327
 42
0.011670
  0
VERTEX
  8
0
 10
355.099626
 20
248.352910
 42
0.046036
  0
VERTEX
  8
0
 10
354.282650
 20
249.152648
 42
0.706336
  0
VERTEX
  8
0
 10
354.085654
 20
249.032625
 42
0.069606
  0
VERTEX
  8
0
 10
354.368762
 20
248.245639
 42
0.020038
  0
VERTEX
  8
0
 10
355.368120
 20
246.517819
 42
0.007486
  0
VERTEX
  8
0
 10
356.902482
 20
244.172931
 42
-0.006029
  0
VERTEX
  8
0
 10
358.516647
 20
241.721700
 42
-0.009842
  0
VERTEX
  8
0
 10
359.818928
 20
239.600456
 42
-0.003896
  0
VERTEX
  8
0
 10
360.865205
 20
237.786242
 42
-0.337149
  0
VERTEX
  8
0
 10
360.825213
 20
237.491879
 42
-0.250817
  0
VERTEX
  8
0
 10
360.511408
 20
237.396900
 42
-0.003616
  0
VERTEX
  8
0
 10
358.537028
 20
237.807051
 42
-0.008950
  0
VERTEX
  8
0
 10
356.217943
 20
238.349935
 42
-0.005661
  0
VERTEX
  8
0
 10
353.532730
 20
239.061885
 42
0.020743
  0
VERTEX
  8
0
 10
346.151317
 20
240.782532
 42
0.031641
  0
VERTEX
  8
0
 10
339.625952
 20
241.597672
 42
0.034538
  0
VERTEX
  8
0
 10
333.500722
 20
241.548461
 42
0.032930
  0
VERTEX
  8
0
 10
327.340288
 20
240.661976
 42
0.060627
  0
VERTEX
  8
0
 10
314.111433
 20
236.132812
 42
0.056186
  0
VERTEX
  8
0
 10
301.981270
 20
228.473270
 42
0.054447
  0
VERTEX
  8
0
 10
291.531096
 20
218.046827
 42
0.050403
  0
VERTEX
  8
0
 10
283.266064
 20
205.349511
 42
0.000000
  0
VERTEX
  8
0
 10
279.576957
 20
198.199022
 42
0.000000
  0
VERTEX
  8
0
 10
275.742798
 20
202.554857
 42
0.065374
  0
VERTEX
  8
0
 10
268.461606
 20
208.920975
 42
0.047170
  0
VERTEX
  8
0
 10
258.950628
 20
214.038254
 42
0.040961
  0
VERTEX
  8
0
 10
247.278857
 20
217.873359
 42
0.027751
  0
VERTEX
  8
0
 10
233.500000
 20
220.382123
 42
-0.008898
  0
VERTEX
  8
0
 10
228.500702
 20
221.098909
 42
-0.008253
  0
VERTEX
  8
0
 10
223.402773
 20
222.009249
 42
-0.008266
  0
VERTEX
  8
0
 10
218.894816
 20
222.968891
 42
-0.027298
  0
VERTEX
  8
0
 10
215.977524
 20
223.810489
 42
-0.023007
  0
VERTEX
  8
0
 10
208.129621
 20
226.958235
 42
-0.037264
  0
VERTEX
  8
0
 10
201.829236
 20
230.416117
 42
-0.044673
  0
VERTEX
  8
0
 10
197.715425
 20
233.646808
 42
-0.356370
  0
VERTEX
  8
0
 10
197.421817
 20
235.873497
 42
-0.084891
  0
VERTEX
  8
0
 10
197.938515
 20
236.459122
 42
-0.004834
  0
VERTEX
  8
0
 10
199.835098
 20
237.958004
 42
-0.007281
  0
VERTEX
  8
0
 10
202.146691
 20
239.695572
 42
-0.005272
  0
VERTEX
  8
0
 10
204.769778
 20
241.566105
 42
0.019358
  0
VERTEX
  8
0
 10
216.655713
 20
250.557516
 42
0.028349
  0
VERTEX
  8
0
 10
226.311702
 20
259.428019
 42
0.030518
  0
VERTEX
  8
0
 10
234.356969
 20
268.786781
 42
0.028787
  0
VERTEX
  8
0
 10
241.374300
 20
279.233559
 42
0.017452
  0
VERTEX
  8
0
 10
245.755716
 20
287.272125
 42
0.020140
  0
VERTEX
  8
0
 10
249.345123
 20
295.227237
 42
0.016970
  0
VERTEX
  8
0
 10
252.725957
 20
304.499265
 42
0.007848
  0
VERTEX
  8
0
 10
256.518403
 20
316.758646
 42
-0.009335
  0
VERTEX
  8
0
 10
258.655105
 20
323.593658
 42
-0.007582
  0
VERTEX
  8
0
 10
261.192028
 20
330.838655
 42
-0.007741
  0
VERTEX
  8
0
 10
263.763829
 20
337.519531
 42
-0.017241
  0
VERTEX
  8
0
 10
265.972607
 20
342.500000
 42
-0.012878
  0
VERTEX
  8
0
 10
268.859821
 20
348.077668
 42
-0.029596
  0
VERTEX
  8
0
 10
271.380342
 20
352.074927
 42
-0.029772
  0
VERTEX
  8
0
 10
274.345898
 20
355.732494
 42
-0.013179
  0
VERTEX
  8
0
 10
278.663325
 20
360.210209
 42
-0.051643
  0
VERTEX
  8
0
 10
303.630414
 20
380.156430
 42
-0.035459
  0
VERTEX
  8
0
 10
335.464969
 20
397.547268
 42
-0.033883
  0
VERTEX
  8
0
 10
371.284026
 20
411.085347
 42
-0.034909
  0
VERTEX
  8
0
 10
408.249988
 20
419.500473
 42
-0.013582
  0
VERTEX
  8
0
 10
417.651787
 20
420.699803
 42
-0.006033
  0
VERTEX
  8
0
 10
430.104478
 20
421.794082
 42
-0.002977
  0
VERTEX
  8
0
 10
442.540614
 20
422.661410
 42
-0.079711
  0
VERTEX
  8
0
 10
445.831787
 20
422.346445
 42
0.041204
  0
VERTEX
  8
0
 10
446.606914
 20
422.211686
 42
0.007399
  0
VERTEX
  8
0
 10
448.070212
 20
422.101768
 42
0.007941
  0
VERTEX
  8
0
 10
449.792610
 20
422.025422
 42
0.007104
  0
SEQEND
  0
POLYLINE
  8
0
 66
1
 70
1
  0
VERTEX
  8
0
 10
397.877131
 20
421.543798
 42
-0.136537
  0
VERTEX
  8
0
 10
397.464840
 20
421.311008
 42
-0.001364
  0
VERTEX
  8
0
 10
394.155618
 20
420.501611
 42
-0.004329
  0
VERTEX
  8
0
 10
390.317248
 20
419.608978
 42
-0.002779
  0
VERTEX
  8
0
 10
385.848776
 20
418.636552
 42
0.041043
  0
VERTEX
  8
0
 10
349.935967
 20
407.889989
 42
0.034687
  0
VERTEX
  8
0
 10
314.088282
 20
390.919592
 42
0.036016
  0
VERTEX
  8
0
 10
283.866872
 20
370.968371
 42
0.088229
  0
VERTEX
  8
0
 10
265.981301
 20
351.352966
 42
0.018537
  0
VERTEX
  8
0
 10
262.225906
 20
344.887781
 42
0.027502
  0
VERTEX
  8
0
 10
259.470987
 20
338.946321
 42
0.019129
  0
VERTEX
  8
0
 10
256.771892
 20
331.338478
 42
0.004588
  0
VERTEX
  8
0
 10
252.895343
 20
318.511704
 42
-0.028880
  0
VERTEX
  8
0
 10
243.967789
 20
293.438502
 42
-0.055841
  0
VERTEX
  8
0
 10
233.561730
 20
274.894737
 42
-0.053702
  0
VERTEX
  8
0
 10
219.025299
 20
258.659276
 42
-0.024805
  0
VERTEX
  8
0
 10
197.023005
 20
240.733499
 42
0.025252
  0
VERTEX
  8
0
 10
190.478363
 20
235.391690
 42
0.053826
  0
VERTEX
  8
0
 10
186.137315
 20
230.523373
 42
0.072051
  0
VERTEX
  8
0
 10
183.755117
 20
225.911691
 42
0.104072
  0
VERTEX
  8
0
 10
183.182286
 20
221.373261
 42
0.000000
  0
VERTEX
  8
0
 10
183.500000
 20
217.500000
 42
0.000000
  0
VERTEX
  8
0
 10
186.245909
 20
223.091310
 42
-0.014015
  0
VERTEX
  8
0
 10
187.441232
 20
225.362119
 42
-0.014025
  0
VERTEX
  8
0
 10
188.761626
 20
227.561825
 42
-0.013984
  0
VERTEX
  8
0
 10
190.019771
 20
229.414236
 42
-0.052709
  0
VERTEX
  8
0
 10
190.954095
 20
230.458457
 42
-0.049124
  0
VERTEX
  8
0
 10
192.235565
 20
231.407387
 42
-0.192918
  0
VERTEX
  8
0
 10
193.188096
 20
231.559220
 42
-0.102738
  0
VERTEX
  8
0
 10
194.333306
 20
231.036990
 42
-0.009313
  0
VERTEX
  8
0
 10
196.846268
 20
229.121758
 42
0.044124
  0
VERTEX
  8
0
 10
204.209582
 20
224.280039
 42
0.039735
  0
VERTEX
  8
0
 10
212.566055
 20
220.607819
 42
0.034606
  0
VERTEX
  8
0
 10
222.437708
 20
217.924254
 42
0.020967
  0
VERTEX
  8
0
 10
234.406681
 20
216.062408
 42
-0.040968
  0
VERTEX
  8
0
 10
249.111630
 20
213.169014
 42
-0.056239
  0
VERTEX
  8
0
 10
261.576323
 20
208.066736
 42
-0.063968
  0
VERTEX
  8
0
 10
271.303722
 20
200.994417
 42
-0.084143
  0
VERTEX
  8
0
 10
277.902991
 20
192.250000
 42
0.054184
  0
VERTEX
  8
0
 10
278.888194
 20
190.768538
 42
0.146193
  0
VERTEX
  8
0
 10
279.930801
 20
190.077464
 42
0.317316
  0
VERTEX
  8
0
 10
280.675333
 20
190.323795
 42
0.160545
  0
VERTEX
  8
0
 10
281.000000
 20
191.308870
 42
-0.074699
  0
VERTEX
  8
0
 10
281.095239
 20
191.942804
 42
-0.027645
  0
VERTEX
  8
0
 10
281.408658
 20
192.792133
 42
-0.026660
  0
VERTEX
  8
0
 10
281.858720
 20
193.695749
 42
-0.028999
  0
VERTEX
  8
0
 10
282.391176
 20
194.520287
 42
-0.058832
  0
VERTEX
  8
0
 10
283.342850
 20
195.544096
 42
-0.223735
  0
VERTEX
  8
0
 10
284.163518
 20
195.766061
 42
-0.100111
  0
VERTEX
  8
0
 10
285.275500
 20
195.327549
 42
-0.007707
  0
VERTEX
  8
0
 10
287.956512
 20
193.530137
 42
-0.067881
  0
VERTEX
  8
0
 10
297.947820
 20
184.378416
 42
-0.034657
  0
VERTEX
  8
0
 10
307.912910
 20
170.548643
 42
-0.031523
  0
VERTEX
  8
0
 10
317.018809
 20
153.561855
 42
-0.027141
  0
VERTEX
  8
0
 10
324.436544
 20
134.705202
 42
0.033036
  0
VERTEX
  8
0
 10
331.599389
 20
117.107878
 42
0.071162
  0
VERTEX
  8
0
 10
339.779817
 20
105.013395
 42
0.087697
  0
VERTEX
  8
0
 10
349.777464
 20
97.269039
 42
0.075976
  0
VERTEX
  8
0
 10
362.330832
 20
92.934617
 42
0.095949
  0
VERTEX
  8
0
 10
376.080379
 20
93.079123
 42
0.074357
  0
VERTEX
  8
0
 10
390.173502
 20
98.227685
 42
0.072373
  0
VERTEX
  8
0
 10
402.490783
 20
107.459769
 42
0.081765
  0
VERTEX
  8
0
 10
411.070293
 20
119.478973
 42
0.015675
  0
VERTEX
  8
0
 10
413.075611
 20
123.904789
 42
0.050638
  0
VERTEX
  8
0
 10
414.006631
 20
126.992109
 42
0.040506
  0
VERTEX
  8
0
 10
414.401691
 20
130.545195
 42
0.007442
  0
VERTEX
  8
0
 10
414.500000
 20
137.150211
 42
0.000000
  0
VERTEX
  8
0
 10
414.500000
 20
147.842477
 42
0.000000
  0
VERTEX
  8
0
 10
409.764436
 20
156.671239
 42
-0.004704
  0
VERTEX
  8
0
 10
402.958717
 20
169.651206
 42
-0.011362
  0
VERTEX
  8
0
 10
398.237675
 20
179.404915
 42
-0.015183
  0
VERTEX
  8
0
 10
395.007695
 20
187.093785
 42
-0.029890
  0
VERTEX
  8
0
 10
393.001324
 20
193.409963
 42
-0.054982
  0
VERTEX
  8
0
 10
391.081981
 20
207.234042
 42
-0.068388
  0
VERTEX
  8
0
 10
392.485281
 20
220.121839
 42
-0.067862
  0
VERTEX
  8
0
 10
397.329181
 20
232.230456
 42
-0.053043
  0
VERTEX
  8
0
 10
405.588660
 20
243.750000
 42
-0.007170
  0
VERTEX
  8
0
 10
407.785994
 20
246.145062
 42
-0.010776
  0
VERTEX
  8
0
 10
409.776371
 20
248.164063
 42
-0.005910
  0
VERTEX
  8
0
 10
411.492786
 20
249.792712
 42
-0.189042
  0
VERTEX
  8
0
 10
412.021452
 20
250.000000
 42
-0.544281
  0
VERTEX
  8
0
 10
412.196635
 20
249.729029
 42
-0.009840
  0
VERTEX
  8
0
 10
411.315560
 20
247.870313
 42
-0.014575
  0
VERTEX
  8
0
 10
410.063556
 20
245.531385
 42
-0.008088
  0
VERTEX
  8
0
 10
408.408378
 20
242.750000
 42
0.027629
  0
VERTEX
  8
0
 10
404.666780
 20
235.864011
 42
0.035538
  0
VERTEX
  8
0
 10
402.052495
 20
229.152566
 42
0.037563
  0
VERTEX
  8
0
 10
400.519255
 20
222.463023
 42
0.037988
  0
VERTEX
  8
0
 10
400.011869
 20
215.644665
 42
0.048097
  0
VERTEX
  8
0
 10
400.985261
 20
205.721515
 42
0.047926
  0
VERTEX
  8
0
 10
403.836751
 20
196.154773
 42
0.036951
  0
VERTEX
  8
0
 10
409.158759
 20
185.394774
 42
0.014863
  0
VERTEX
  8
0
 10
417.918567
 20
171.512885
 42
-0.004004
  0
VERTEX
  8
0
 10
421.513178
 20
166.081439
 42
-0.004202
  0
VERTEX
  8
0
 10
424.962334
 20
160.679198
 42
-0.004031
  0
VERTEX
  8
0
 10
427.862154
 20
155.968096
 42
-0.018670
  0
VERTEX
  8
0
 10
429.412853
 20
153.171977
 42
-0.133359
  0
VERTEX
  8
0
 10
434.962512
 20
126.328587
 42
-0.098835
  0
VERTEX
  8
0
 10
427.186595
 20
96.898633
 42
-0.091780
  0
VERTEX
  8
0
 10
407.906083
 20
70.915803
 42
-0.095612
  0
VERTEX
  8
0
 10
380.853678
 20
54.003818
 42
-0.053183
  0
VERTEX
  8
0
 10
365.904580
 20
49.998199
 42
-0.062043
  0
VERTEX
  8
0
 10
351.219384
 20
49.533889
 42
-0.050625
  0
VERTEX
  8
0
 10
334.619301
 20
52.786414
 42
-0.022314
  0
VERTEX
  8
0
 10
313.500000
 20
60.239669
 42
-0.003909
  0
VERTEX
  8
0
 10
305.361837
 20
63.601134
 42
-0.058505
  0
VERTEX
  8
0
 10
302.694166
 20
65.115815
 42
-0.203944
  0
VERTEX
  8
0
 10
301.817141
 20
66.595143
 42
-0.124664
  0
VERTEX
  8
0
 10
302.054202
 20
68.642561
 42
0.050031
  0
VERTEX
  8
0
 10
302.811918
 20
71.453051
 42
0.098626
  0
VERTEX
  8
0
 10
302.735329
 20
73.755357
 42
0.077338
  0
VERTEX
  8
0
 10
301.744649
 20
76.205504
 42
0.022062
  0
VERTEX
  8
0
 10
299.480550
 20
79.640809
 42
-0.016202
  0
VERTEX
  8
0
 10
295.523004
 20
85.495120
 42
-0.073555
  0
VERTEX
  8
0
 10
293.866781
 20
89.252259
 42
-0.095556
  0
VERTEX
  8
0
 10
293.587652
 20
92.832141
 42
-0.037926
  0
VERTEX
  8
0
 10
294.515702
 20
97.696075
 42
-0.012308
  0
VERTEX
  8
0
 10
295.233987
 20
100.112193
 42
-0.019245
  0
VERTEX
  8
0
 10
295.981972
 20
102.148222
 42
-0.014083
  0
VERTEX
  8
0
 10
296.687345
 20
103.733203
 42
-0.288614
  0
VERTEX
  8
0
 10
297.111047
 20
104.000000
 42
-0.111382
  0
VERTEX
  8
0
 10
297.450169
 20
103.923507
 42
-0.100062
  0
VERTEX
  8
0
 10
297.738870
 20
103.707135
 42
-0.094622
  0
VERTEX
  8
0
 10
297.932535
 20
103.383683
 42
-0.087929
  0
VERTEX
  8
0
 10
298.000000
 20
103.003014
 42
0.194313
  0
VERTEX
  8
0
 10
298.841234
 20
100.920112
 42
0.005134
  0
VERTEX
  8
0
 10
305.969921
 20
93.684496
 42
0.011248
  0
VERTEX
  8
0
 10
313.140953
 20
86.867717
 42
0.035234
  0
VERTEX
  8
0
 10
318.362796
 20
82.754924
 42
0.042489
  0
VERTEX
  8
0
 10
330.547924
 20
75.910610
 42
0.045380
  0
VERTEX
  8
0
 10
343.453174
 20
71.401343
 42
0.048198
  0
VERTEX
  8
0
 10
356.161967
 20
69.491888
 42
0.064745
  0
VERTEX
  8
0
 10
367.759479
 20
70.380831
 42
0.026470
  0
VERTEX
  8
0
 10
373.110898
 20
71.797189
 42
0.012236
  0
VERTEX
  8
0
 10
379.908378
 20
74.172190
 42
0.004739
  0
VERTEX
  8
0
 10
386.621295
 20
76.776527
 42
0.546495
  0
VERTEX
  8
0
 10
386.770778
 20
77.549881
 42
0.267009
  0
VERTEX
  8
0
 10
386.526585
 20
77.609534
 42
0.001436
  0
VERTEX
  8
0
 10
384.103197
 20
76.899224
 42
0.005636
  0
VERTEX
  8
0
 10
381.321297
 20
76.040920
 42
0.003483
  0
VERTEX
  8
0
 10
378.069891
 20
74.972434
 42
-0.015259
  0
VERTEX
  8
0
 10
374.326280
 20
73.839142
 42
-0.010625
  0
VERTEX
  8
0
 10
370.039346
 20
72.780087
 42
-0.010728
  0
VERTEX
  8
0
 10
365.879310
 20
71.939021
 42
-0.021734
  0
VERTEX
  8
0
 10
362.569891
 20
71.490960
 42
-0.057647
  0
VERTEX
  8
0
 10
352.091451
 20
71.743095
 42
-0.041840
  0
VERTEX
  8
0
 10
340.702038
 20
74.324157
 42
-0.039697
  0
VERTEX
  8
0
 10
329.246908
 20
78.977205
 42
-0.038668
  0
VERTEX
  8
0
 10
318.564391
 20
85.416800
 42
-0.031435
  0
VERTEX
  8
0
 10
312.973282
 20
89.962525
 42
-0.012275
  0
VERTEX
  8
0
 10
305.824639
 20
96.894775
 42
-0.005826
  0
VERTEX
  8
0
 10
298.871422
 20
104.143919
 42
-0.192925
  0
VERTEX
  8
0
 10
298.010824
 20
106.351305
 42
-0.052063
  0
VERTEX
  8
0
 10
298.090366
 20
107.049385
 42
-0.006111
  0
VERTEX
  8
0
 10
298.447440
 20
108.576411
 42
-0.007270
  0
VERTEX
  8
0
 10
298.922000
 20
110.386006
 42
-0.005892
  0
VERTEX
  8
0
 10
299.481975
 20
112.313071
 42
0.028098
  0
VERTEX
  8
0
 10
301.251049
 20
119.592561
 42
0.024806
  0
VERTEX
  8
0
 10
302.283770
 20
127.334029
 42
0.025606
  0
VERTEX
  8
0
 10
302.521468
 20
134.802267
 42
0.039323
  0
VERTEX
  8
0
 10
301.888791
 20
141.238252
 42
0.000000
  0
VERTEX
  8
0
 10
300.592917
 20
148.500000
 42
0.000000
  0
VERTEX
  8
0
 10
299.805523
 20
141.500000
 42
-0.003924
  0
VERTEX
  8
0
 10
298.361501
 20
129.510324
 42
-0.014254
  0
VERTEX
  8
0
 10
297.167495
 20
121.929238
 42
-0.019079
  0
VERTEX
  8
0
 10
295.738724
 20
115.625036
 42
-0.012255
  0
VERTEX
  8
0
 10
293.626032
 20
108.428131
 42
0.010903
  0
VERTEX
  8
0
 10
290.109040
 20
96.566175
 42
0.076980
  0
VERTEX
  8
0
 10
289.434182
 20
90.607401
 42
0.119864
  0
VERTEX
  8
0
 10
290.782560
 20
85.908949
 42
0.042128
  0
VERTEX
  8
0
 10
294.785371
 20
80.086438
 42
-0.056264
  0
VERTEX
  8
0
 10
297.200963
 20
76.351275
 42
-0.075413
  0
VERTEX
  8
0
 10
298.433847
 20
72.517150
 42
-0.091771
  0
VERTEX
  8
0
 10
298.357139
 20
69.101962
 42
-0.146412
  0
VERTEX
  8
0
 10
296.977273
 20
66.553435
 42
-0.122072
  0
VERTEX
  8
0
 10
295.800846
 20
65.846889
 42
-0.006446
  0
VERTEX
  8
0
 10
291.562664
 20
64.605131
 42
-0.009836
  0
VERTEX
  8
0
 10
286.427302
 20
63.280434
 42
-0.006976
  0
VERTEX
  8
0
 10
280.619029
 20
61.988729
 42
0.014487
  0
VERTEX
  8
0
 10
269.345193
 20
59.303203
 42
0.036490
  0
VERTEX
  8
0
 10
261.380613
 20
56.523685
 42
0.048945
  0
VERTEX
  8
0
 10
255.437246
 20
53.226239
 42
0.058001
  0
VERTEX
  8
0
 10
250.612275
 20
48.992595
 42
-0.012213
  0
VERTEX
  8
0
 10
249.130438
 20
47.430813
 42
-0.020328
  0
VERTEX
  8
0
 10
247.799307
 20
46.199207
 42
-0.015479
  0
VERTEX
  8
0
 10
246.692915
 20
45.313664
 42
-0.373386
  0
VERTEX
  8
0
 10
246.327101
 20
45.339566
 42
-0.248245
  0
VERTEX
  8
0
 10
245.945912
 20
46.577346
 42
-0.029880
  0
VERTEX
  8
0
 10
246.669560
 20
49.439430
 42
-0.033468
  0
VERTEX
  8
0
 10
247.923514
 20
52.631607
 42
-0.038774
  0
VERTEX
  8
0
 10
249.542024
 20
55.466788
 42
0.006837
  0
VERTEX
  8
0
 10
251.339830
 20
58.195571
 42
0.334468
  0
VERTEX
  8
0
 10
251.292890
 20
58.806697
 42
0.375720
  0
VERTEX
  8
0
 10
250.722954
 20
58.881088
 42
0.007441
  0
VERTEX
  8
0
 10
248.117562
 20
57.083711
 42
-0.050301
  0
VERTEX
  8
0
 10
245.720514
 20
55.716792
 42
-0.007129
  0
VERTEX
  8
0
 10
240.495125
 20
53.486051
 42
-0.005128
  0
VERTEX
  8
0
 10
235.104223
 20
51.339300
 42
-0.092440
  0
VERTEX
  8
0
 10
233.284659
 20
51.000000
 42
-0.361917
  0
VERTEX
  8
0
 10
233.172003
 20
51.093835
 42
-0.014201
  0
VERTEX
  8
0
 10
233.083619
 20
51.665521
 42
-0.019455
  0
VERTEX
  8
0
 10
233.020495
 20
52.396982
 42
-0.011796
  0
VERTEX
  8
0
 10
233.000000
 20
53.265602
 42
-0.093095
  0
VERTEX
  8
0
 10
233.564761
 20
56.272575
 42
-0.053602
  0
VERTEX
  8
0
 10
235.266786
 20
59.554591
 42
-0.051643
  0
VERTEX
  8
0
 10
237.736395
 20
62.554736
 42
-0.064673
  0
VERTEX
  8
0
 10
240.604101
 20
64.733550
 42
0.005043
  0
VERTEX
  8
0
 10
243.567931
 20
66.472686
 42
0.486250
  0
VERTEX
  8
0
 10
243.621317
 20
66.897927
 42
0.302680
  0
VERTEX
  8
0
 10
243.052063
 20
67.014911
 42
0.004413
  0
VERTEX
  8
0
 10
239.717881
 20
65.628879
 42
0.033516
  0
VERTEX
  8
0
 10
238.309580
 20
64.913855
 42
0.019975
  0
VERTEX
  8
0
 10
236.733110
 20
63.888291
 42
0.019947
  0
VERTEX
  8
0
 10
235.237341
 20
62.735564
 42
0.032356
  0
VERTEX
  8
0
 10
234.075686
 20
61.628879
 42
-0.041919
  0
VERTEX
  8
0
 10
232.715221
 20
60.381480
 42
-0.065123
  0
VERTEX
  8
0
 10
231.342078
 20
59.580215
 42
-0.063032
  0
VERTEX
  8
0
 10
229.775979
 20
59.142976
 42
-0.036606
  0
VERTEX
  8
0
 10
227.825686
 20
59.000000
 42
-0.021506
  0
VERTEX
  8
0
 10
226.359413
 20
59.063096
 42
-0.034577
  0
VERTEX
  8
0
 10
225.123795
 20
59.256338
 42
-0.038428
  0
VERTEX
  8
0
 10
224.229993
 20
59.533884
 42
-0.307391
  0
VERTEX
  8
0
 10
224.000000
 20
59.872640
 42
-0.209792
  0
VERTEX
  8
0
 10
224.735850
 20
61.549211
 42
-0.011831
  0
VERTEX
  8
0
 10
229.099654
 20
65.376277
 42
-0.018687
  0
VERTEX
  8
0
 10
233.743947
 20
68.972807
 42
-0.052007
  0
VERTEX
  8
0
 10
237.324330
 20
71.011612
 42
-0.040214
  0
VERTEX
  8
0
 10
242.007602
 20
72.633243
 42
-0.022436
  0
VERTEX
  8
0
 10
247.915705
 20
73.880723
 42
-0.017646
  0
VERTEX
  8
0
 10
255.389884
 20
74.842208
 42
-0.008554
  0
VERTEX
  8
0
 10
265.000000
 20
75.569572
 42
0.005075
  0
VERTEX
  8
0
 10
269.501616
 20
75.878805
 42
0.007137
  0
VERTEX
  8
0
 10
273.509699
 20
76.252669
 42
0.004459
  0
VERTEX
  8
0
 10
276.858239
 20
76.643526
 42
0.092021
  0
VERTEX
  8
0
 10
277.820251
 20
76.950246
 42
0.416722
  0
VERTEX
  8
0
 10
278.013269
 20
77.599547
 42
0.056166
  0
VERTEX
  8
0
 10
277.105758
 20
78.889900
 42
0.031060
  0
VERTEX
  8
0
 10
275.212062
 20
80.776577
 42
0.008936
  0
VERTEX
  8
0
 10
272.056961
 20
83.453399
 42
-0.034718
  0
VERTEX
  8
0
 10
261.204837
 20
93.667227
 42
-0.043119
  0
VERTEX
  8
0
 10
252.707535
 20
104.613691
 42
-0.044182
  0
VERTEX
  8
0
 10
246.370243
 20
116.621622
 42
-0.039603
  0
VERTEX
  8
0
 10
241.964430
 20
130.000000
 42
-0.039735
  0
VERTEX
  8
0
 10
240.910651
 20
136.548753
 42
-0.023620
  0
VERTEX
  8
0
 10
240.650675
 20
144.451115
 42
-0.023677
  0
VERTEX
  8
0
 10
241.126293
 20
152.151169
 42
-0.049965
  0
VERTEX
  8
0
 10
242.366090
 20
158.000000
 42
-0.065483
  0
VERTEX
  8
0
 10
246.073987
 20
165.886156
 42
-0.071256
  0
VERTEX
  8
0
 10
251.610466
 20
172.294243
 42
-0.076731
  0
VERTEX
  8
0
 10
258.317467
 20
176.525470
 42
-0.097854
  0
VERTEX
  8
0
 10
265.446344
 20
178.078947
 42
0.001536
  0
VERTEX
  8
0
 10
268.295418
 20
178.143194
 42
0.190972
  0
VERTEX
  8
0
 10
268.619861
 20
178.281522
 42
0.545811
  0
VERTEX
  8
0
 10
268.578407
 20
178.477102
 42
0.003507
  0
VERTEX
  8
0
 10
266.593281
 20
179.214520
 42
0.129240
  0
VERTEX
  8
0
 10
260.988869
 20
179.729355
 42
0.068310
  0
VERTEX
  8
0
 10
254.276667
 20
177.639351
 42
0.063536
  0
VERTEX
  8
0
 10
247.827939
 20
173.549731
 42
0.073557
  0
VERTEX
  8
0
 10
242.972028
 20
168.144055
 42
0.064255
  0
VERTEX
  8
0
 10
239.339928
 20
160.751730
 42
0.045198
  0
VERTEX
  8
0
 10
237.152585
 20
151.736340
 42
0.040995
  0
VERTEX
  8
0
 10
236.480882
 20
141.534414
 42
0.033133
  0
VERTEX
  8
0
 10
237.385114
 20
130.590800
 42
0.000000
  0
VERTEX
  8
0
 10
238.270228
 20
124.681601
 42
0.000000
  0
VERTEX
  8
0
 10
220.141401
 20
125.277898
 42
-0.002653
  0
VERTEX
  8
0
 10
213.129322
 20
125.545789
 42
-0.004110
  0
VERTEX
  8
0
 10
207.079211
 20
125.858922
 42
-0.001345
  0
VERTEX
  8
0
 10
201.858184
 20
126.186287
 42
-0.122676
  0
VERTEX
  8
0
 10
201.131875
 20
126.418497
 42
-0.281819
  0
VERTEX
  8
0
 10
200.854667
 20
126.967162
 42
-0.009184
  0
VERTEX
  8
0
 10
201.111170
 20
129.525561
 42
-0.015129
  0
VERTEX
  8
0
 10
201.577174
 20
132.639495
 42
-0.009639
  0
VERTEX
  8
0
 10
202.298116
 20
136.231399
 42
0.032802
  0
VERTEX
  8
0
 10
203.973703
 20
147.186333
 42
0.022262
  0
VERTEX
  8
0
 10
204.499688
 20
159.799214
 42
0.021993
  0
VERTEX
  8
0
 10
203.948036
 20
171.573535
 42
0.065782
  0
VERTEX
  8
0
 10
202.175499
 20
179.420093
 42
0.018687
  0
VERTEX
  8
0
 10
200.123160
 20
184.399997
 42
0.020515
  0
VERTEX
  8
0
 10
197.761866
 20
189.056516
 42
0.021364
  0
VERTEX
  8
0
 10
195.399415
 20
192.883512
 42
0.070692
  0
VERTEX
  8
0
 10
193.414053
 20
195.071330
 42
0.041741
  0
VERTEX
  8
0
 10
192.620873
 20
195.624861
 42
0.621311
  0
VERTEX
  8
0
 10
192.404772
 20
195.481409
 42
0.081716
  0
VERTEX
  8
0
 10
192.628965
 20
194.730632
 42
0.004351
  0
VERTEX
  8
0
 10
193.743754
 20
192.491608
 42
-0.046481
  0
VERTEX
  8
0
 10
197.606965
 20
182.756282
 42
-0.036314
  0
VERTEX
  8
0
 10
200.004452
 20
171.632168
 42
-0.034812
  0
VERTEX
  8
0
 10
200.837966
 20
159.758320
 42
-0.033930
  0
VERTEX
  8
0
 10
200.030002
 20
147.779803
 42
-0.020918
  0
VERTEX
  8
0
 10
197.479774
 20
133.523721
 42
-0.013300
  0
VERTEX
  8
0
 10
193.382106
 20
117.165355
 42
-0.013343
  0
VERTEX
  8
0
 10
188.466883
 20
101.203725
 42
-0.022749
  0
VERTEX
  8
0
 10
183.409926
 20
88.200410
 42
0.022525
  0
VERTEX
  8
0
 10
182.479818
 20
85.811913
 42
0.017493
  0
VERTEX
  8
0
 10
181.678635
 20
83.139976
 42
0.017810
  0
VERTEX
  8
0
 10
181.106735
 20
80.591151
 42
0.040259
  0
VERTEX
  8
0
 10
180.900320
 20
78.625570
 42
-0.051643
  0
VERTEX
  8
0
 10
180.121363
 20
72.542096
 42
-0.141866
  0
VERTEX
  8
0
 10
178.020001
 20
68.806416
 42
-0.117700
  0
VERTEX
  8
0
 10
173.967515
 20
66.364965
 42
-0.030202
  0
VERTEX
  8
0
 10
166.500000
 20
64.477937
 42
0.009095
  0
VERTEX
  8
0
 10
159.256458
 20
62.969425
 42
0.032927
  0
VERTEX
  8
0
 10
154.745885
 20
61.626648
 42
0.044717
  0
VERTEX
  8
0
 10
151.201109
 20
59.938111
 42
0.029521
  0
VERTEX
  8
0
 10
147.455954
 20
57.414516
 42
0.000000
  0
VERTEX
  8
0
 10
143.000000
 20
54.013210
 42
0.000000
  0
VERTEX
  8
0
 10
143.000000
 20
56.538724
 42
-0.067440
  0
VERTEX
  8
0
 10
143.412555
 20
59.583470
 42
-0.047485
  0
VERTEX
  8
0
 10
144.645183
 20
62.816460
 42
-0.048382
  0
VERTEX
  8
0
 10
146.417372
 20
65.669451
 42
-0.084759
  0
VERTEX
  8
0
 10
148.447683
 20
67.557677
 42
0.021518
  0
VERTEX
  8
0
 10
150.637930
 20
69.131485
 42
0.626362
  0
VERTEX
  8
0
 10
150.524863
 20
69.650602
 42
0.170172
  0
VERTEX
  8
0
 10
149.302926
 20
69.528082
 42
0.013740
  0
VERTEX
  8
0
 10
146.372054
 20
68.059422
 42
-0.019788
  0
VERTEX
  8
0
 10
144.750274
 20
67.271138
 42
-0.019205
  0
VERTEX
  8
0
 10
143.055157
 20
66.604955
 42
-0.019524
  0
VERTEX
  8
0
 10
141.521586
 20
66.135584
 42
-0.064582
  0
VERTEX
  8
0
 10
140.476251
 20
66.000000
 42
0.060259
  0
VERTEX
  8
0
 10
139.438004
 20
65.874416
 42
0.019104
  0
VERTEX
  8
0
 10
137.935824
 20
65.444166
 42
0.018765
  0
VERTEX
  8
0
 10
136.283073
 20
64.832088
 42
0.019822
  0
VERTEX
  8
0
 10
134.711442
 20
64.107799
 42
-0.005481
  0
VERTEX
  8
0
 10
131.855631
 20
62.691046
 42
-0.277734
  0
VERTEX
  8
0
 10
131.258787
 20
62.746264
 42
-0.361741
  0
VERTEX
  8
0
 10
131.131689
 20
63.259981
 42
-0.007443
  0
VERTEX
  8
0
 10
132.410724
 20
65.799660
 42
-0.071343
  0
VERTEX
  8
0
 10
135.609227
 20
70.243452
 42
-0.065266
  0
VERTEX
  8
0
 10
140.017658
 20
73.765815
 42
-0.057776
  0
VERTEX
  8
0
 10
145.684229
 20
76.353413
 42
-0.038651
  0
VERTEX
  8
0
 10
152.622621
 20
78.019589
 42
0.033831
  0
VERTEX
  8
0
 10
157.748555
 20
79.198447
 42
0.083832
  0
VERTEX
  8
0
 10
161.188650
 20
80.906945
 42
0.084027
  0
VERTEX
  8
0
 10
163.872366
 20
83.647585
 42
0.034104
  0
VERTEX
  8
0
 10
166.563204
 20
88.146147
 42
0.049933
  0
VERTEX
  8
0
 10
168.675747
 20
93.575085
 42
0.032106
  0
VERTEX
  8
0
 10
170.066327
 20
100.192536
 42
0.029415
  0
VERTEX
  8
0
 10
170.692606
 20
107.619884
 42
0.024886
  0
VERTEX
  8
0
 10
170.499874
 20
115.500000
 42
0.022944
  0
VERTEX
  8
0
 10
169.612638
 20
122.852233
 42
0.031961
  0
VERTEX
  8
0
 10
168.102822
 20
129.304079
 42
0.030410
  0
VERTEX
  8
0
 10
165.717300
 20
135.747504
 42
0.018194
  0
VERTEX
  8
0
 10
162.150624
 20
143.097964
 42
-0.017046
  0
VERTEX
  8
0
 10
158.145676
 20
151.303629
 42
-0.041937
  0
VERTEX
  8
0
 10
155.935184
 20
157.630037
 42
-0.044005
  0
VERTEX
  8
0
 10
154.869785
 20
164.053343
 42
-0.020489
  0
VERTEX
  8
0
 10
154.570292
 20
172.500000
 42
-0.009939
  0
VERTEX
  8
0
 10
154.685425
 20
177.030457
 42
-0.009978
  0
VERTEX
  8
0
 10
154.980492
 20
181.546839
 42
-0.009842
  0
VERTEX
  8
0
 10
155.393691
 20
185.472170
 42
-0.038827
  0
VERTEX
  8
0
 10
155.881289
 20
187.850942
 42
0.011948
  0
VERTEX
  8
0
 10
156.326363
 20
189.552064
 42
0.017780
  0
VERTEX
  8
0
 10
156.626723
 20
191.061287
 42
0.013028
  0
VERTEX
  8
0
 10
156.794428
 20
192.297500
 42
0.227345
  0
VERTEX
  8
0
 10
156.663390
 20
192.669943
 42
0.552970
  0
VERTEX
  8
0
 10
155.680473
 20
192.445140
 42
0.010559
  0
VERTEX
  8
0
 10
153.729694
 20
186.450158
 42
0.018229
  0
VERTEX
  8
0
 10
152.031714
 20
179.989941
 42
0.036060
  0
VERTEX
  8
0
 10
151.247918
 20
174.750000
 42
-0.010693
  0
VERTEX
  8
0
 10
150.994083
 20
172.162228
 42
-0.017442
  0
VERTEX
  8
0
 10
150.655680
 20
169.982813
 42
-0.011562
  0
VERTEX
  8
0
 10
150.284348
 20
168.257943
 42
-0.346896
  0
VERTEX
  8
0
 10
149.957301
 20
168.000000
 42
-0.176498
  0
VERTEX
  8
0
 10
148.135570
 20
168.663742
 42
-0.007154
  0
VERTEX
  8
0
 10
142.747686
 20
173.323942
 42
-0.013506
  0
VERTEX
  8
0
 10
137.427365
 20
178.324469
 42
-0.026453
  0
VERTEX
  8
0
 10
133.522868
 20
182.631041
 42
-0.044043
  0
VERTEX
  8
0
 10
125.018399
 20
195.181520
 42
-0.052776
  0
VERTEX
  8
0
 10
119.436003
 20
208.309472
 42
-0.054006
  0
VERTEX
  8
0
 10
116.811217
 20
222.053466
 42
-0.049791
  0
VERTEX
  8
0
 10
117.080123
 20
236.431132
 42
-0.031924
  0
VERTEX
  8
0
 10
119.036873
 20
247.062001
 42
-0.026449
  0
VERTEX
  8
0
 10
122.425016
 20
258.064176
 42
-0.022732
  0
VERTEX
  8
0
 10
127.491198
 20
270.145155
 42
-0.013446
  0
VERTEX
  8
0
 10
134.564557
 20
284.089928
 42
0.005526
  0
VERTEX
  8
0
 10
142.726582
 20
299.568284
 42
0.021819
  0
VERTEX
  8
0
 10
147.220716
 20
309.352522
 42
0.034882
  0
VERTEX
  8
0
 10
149.670229
 20
316.813719
 42
0.045364
  0
VERTEX
  8
0
 10
150.793008
 20
323.914980
 42
-0.014532
  0
VERTEX
  8
0
 10
151.150910
 20
327.662834
 42
-0.032730
  0
VERTEX
  8
0
 10
151.688876
 20
330.464532
 42
-0.041269
  0
VERTEX
  8
0
 10
152.484474
 20
332.730695
 42
-0.044055
  0
VERTEX
  8
0
 10
153.627809
 20
334.783475
 42
0.055695
  0
VERTEX
  8
0
 10
156.088588
 20
339.453528
 42
0.051349
  0
VERTEX
  8
0
 10
157.541240
 20
344.680488
 42
0.052109
  0
VERTEX
  8
0
 10
157.884909
 20
350.014283
 42
0.061566
  0
VERTEX
  8
0
 10
157.066208
 20
355.000000
 42
0.053172
  0
VERTEX
  8
0
 10
156.654701
 20
355.995496
 42
0.605594
  0
VERTEX
  8
0
 10
156.324742
 20
355.990061
 42
0.076956
  0
VERTEX
  8
0
 10
156.012901
 20
355.022125
 42
0.004666
  0
VERTEX
  8
0
 10
155.560076
 20
352.000000
 42
-0.053829
  0
VERTEX
  8
0
 10
153.367459
 20
343.302592
 42
-0.079129
  0
VERTEX
  8
0
 10
149.509645
 20
336.445034
 42
-0.088219
  0
VERTEX
  8
0
 10
144.083174
 20
331.642784
 42
-0.086156
  0
VERTEX
  8
0
 10
137.289921
 20
328.956388
 42
-0.017942
  0
VERTEX
  8
0
 10
135.018341
 20
328.569234
 42
-0.017431
  0
VERTEX
  8
0
 10
132.702853
 20
328.341415
 42
-0.017636
  0
VERTEX
  8
0
 10
130.656103
 20
328.284199
 42
-0.059717
  0
VERTEX
  8
0
 10
129.332494
 20
328.452685
 42
0.040622
  0
VERTEX
  8
0
 10
127.855005
 20
328.698259
 42
0.006714
  0
VERTEX
  8
0
 10
124.971661
 20
328.900644
 42
0.007337
  0
VERTEX
  8
0
 10
121.565669
 20
329.043693
 42
0.006428
  0
VERTEX
  8
0
 10
118.003238
 20
329.095157
 42
0.033473
  0
VERTEX
  8
0
 10
110.887042
 20
328.629584
 42
0.031295
  0
VERTEX
  8
0
 10
103.731285
 20
327.217574
 42
0.029507
  0
VERTEX
  8
0
 10
96.420397
 20
324.824085
 42
0.023414
  0
VERTEX
  8
0
 10
88.838220
 20
321.418020
 42
-0.017815
  0
VERTEX
  8
0
 10
86.711673
 20
320.433985
 42
-0.017218
  0
VERTEX
  8
0
 10
84.496378
 20
319.591689
 42
-0.017423
  0
VERTEX
  8
0
 10
82.497425
 20
318.986321
 42
-0.058461
  0
VERTEX
  8
0
 10
81.145387
 20
318.792437
 42
-0.033619
  0
VERTEX
  8
0
 10
77.928700
 20
318.926233
 42
-0.019611
  0
VERTEX
  8
0
 10
74.108919
 20
319.495723
 42
-0.010541
  0
VERTEX
  8
0
 10
70.514351
 20
320.255478
 42
-0.348519
  0
VERTEX
  8
0
 10
70.000000
 20
320.903757
 42
-0.284387
  0
VERTEX
  8
0
 10
70.935294
 20
322.415168
 42
-0.020270
  0
VERTEX
  8
0
 10
75.647559
 20
324.530698
 42
-0.024168
  0
VERTEX
  8
0
 10
81.771198
 20
326.649501
 42
-0.016778
  0
VERTEX
  8
0
 10
88.864966
 20
328.470133
 42
0.020458
  0
VERTEX
  8
0
 10
98.909083
 20
331.126892
 42
0.055698
  0
VERTEX
  8
0
 10
105.643122
 20
334.059955
 42
0.081360
  0
VERTEX
  8
0
 10
109.988821
 20
337.606059
 42
0.104548
  0
VERTEX
  8
0
 10
112.526172
 20
342.082462
 42
-0.088915
  0
VERTEX
  8
0
 10
112.924720
 20
342.839303
 42
-0.074914
  0
VERTEX
  8
0
 10
113.582560
 20
343.463534
 42
-0.072858
  0
VERTEX
  8
0
 10
114.414116
 20
343.879867
 42
-0.076185
  0
VERTEX
  8
0
 10
115.317388
 20
344.031803
 42
0.007580
  0
VERTEX
  8
0
 10
116.747570
 20
344.074334
 42
0.355507
  0
VERTEX
  8
0
 10
116.950329
 20
344.255070
 42
0.271665
  0
VERTEX
  8
0
 10
116.838939
 20
344.541489
 42
0.005450
  0
VERTEX
  8
0
 10
115.558870
 20
345.531803
 42
0.078499
  0
VERTEX
  8
0
 10
113.612721
 20
346.572065
 42
0.081544
  0
VERTEX
  8
0
 10
111.466357
 20
346.943770
 42
0.090487
  0
VERTEX
  8
0
 10
109.504880
 20
346.603571
 42
0.132227
  0
VERTEX
  8
0
 10
108.080707
 20
345.597246
 42
0.031553
  0
VERTEX
  8
0
 10
107.557316
 20
344.878858
 42
0.157469
  0
VERTEX
  8
0
 10
107.433539
 20
344.402429
 42
0.229980
  0
VERTEX
  8
0
 10
107.630722
 20
344.050151
 42
0.071787
  0
VERTEX
  8
0
 10
108.187099
 20
343.770967
 42
-0.416576
  0
VERTEX
  8
0
 10
108.747585
 20
342.638609
 42
-0.086340
  0
VERTEX
  8
0
 10
107.560001
 20
340.475374
 42
-0.056021
  0
VERTEX
  8
0
 10
105.050732
 20
337.970337
 42
-0.050264
  0
VERTEX
  8
0
 10
101.959005
 20
335.979086
 42
-0.037387
  0
VERTEX
  8
0
 10
99.754244
 20
335.054701
 42
-0.010012
  0
VERTEX
  8
0
 10
96.122518
 20
333.922347
 42
-0.010088
  0
VERTEX
  8
0
 10
91.931972
 20
332.798401
 42
-0.010265
  0
VERTEX
  8
0
 10
87.723630
 20
331.851427
 42
0.019517
  0
VERTEX
  8
0
 10
77.666244
 20
329.391974
 42
0.070659
  0
VERTEX
  8
0
 10
71.664788
 20
326.712269
 42
0.077238
  0
VERTEX
  8
0
 10
66.926644
 20
322.596658
 42
0.026265
  0
VERTEX
  8
0
 10
61.399748
 20
315.309864
 42
-0.149827
  0
VERTEX
  8
0
 10
60.622255
 20
314.685027
 42
-0.217063
  0
VERTEX
  8
0
 10
59.755446
 20
314.726641
 42
-0.072937
  0
VERTEX
  8
0
 10
58.506368
 20
315.620410
 42
-0.008422
  0
VERTEX
  8
0
 10
56.057128
 20
318.060571
 42
-0.037464
  0
VERTEX
  8
0
 10
52.346130
 20
322.506713
 42
-0.038657
  0
VERTEX
  8
0
 10
49.383243
 20
327.412224
 42
-0.040308
  0
VERTEX
  8
0
 10
47.319824
 20
332.496966
 42
-0.050564
  0
VERTEX
  8
0
 10
46.290284
 20
337.476359
 42
-0.082303
  0
VERTEX
  8
0
 10
46.684041
 20
343.882211
 42
-0.116376
  0
VERTEX
  8
0
 10
49.197906
 20
348.990280
 42
-0.080877
  0
VERTEX
  8
0
 10
54.526026
 20
353.666670
 42
-0.024088
  0
VERTEX
  8
0
 10
64.000000
 20
358.975672
 42
0.027257
  0
VERTEX
  8
0
 10
72.718314
 20
363.934032
 42
0.057346
  0
VERTEX
  8
0
 10
78.736292
 20
368.862316
 42
0.041780
  0
VERTEX
  8
0
 10
84.556223
 20
375.963772
 42
0.008972
  0
VERTEX
  8
0
 10
93.354924
 20
389.245555
 42
-0.058934
  0
VERTEX
  8
0
 10
98.682018
 20
395.767807
 42
-0.065421
  0
VERTEX
  8
0
 10
105.214533
 20
400.606546
 42
-0.060496
  0
VERTEX
  8
0
 10
113.214955
 20
403.858123
 42
-0.040750
  0
VERTEX
  8
0
 10
122.918845
 20
405.661398
 42
0.000000
  0
VERTEX
  8
0
 10
129.337691
 20
406.320208
 42
0.000000
  0
VERTEX
  8
0
 10
127.668845
 20
403.937598
 42
0.098479
  0
VERTEX
  8
0
 10
126.417459
 20
401.094936
 42
0.061723
  0
VERTEX
  8
0
 10
126.071358
 20
397.465568
 42
0.059365
  0
VERTEX
  8
0
 10
126.629221
 20
393.692915
 42
0.072169
  0
VERTEX
  8
0
 10
128.050407
 20
390.418441
 42
0.116666
  0
VERTEX
  8
0
 10
133.629390
 20
384.844567
 42
0.126755
  0
VERTEX
  8
0
 10
140.946407
 20
382.577193
 42
0.135531
  0
VERTEX
  8
0
 10
148.080331
 20
384.180657
 42
0.141971
  0
VERTEX
  8
0
 10
153.230715
 20
389.200565
 42
-0.030776
  0
VERTEX
  8
0
 10
154.307631
 20
390.852558
 42
-0.023993
  0
VERTEX
  8
0
 10
155.667431
 20
392.509519
 42
-0.024546
  0
VERTEX
  8
0
 10
157.089117
 20
393.934410
 42
-0.052781
  0
VERTEX
  8
0
 10
158.339264
 20
394.849701
 42
0.000000
  0
VERTEX
  8
0
 10
161.178529
 20
396.500000
 42
0.000000
  0
VERTEX
  8
0
 10
165.049933
 20
392.037057
 42
-0.045874
  0
VERTEX
  8
0
 10
171.888440
 20
382.515741
 42
-0.034026
  0
VERTEX
  8
0
 10
177.679138
 20
370.919876
 42
-0.033981
  0
VERTEX
  8
0
 10
181.852099
 20
358.624209
 42
-0.045264
  0
VERTEX
  8
0
 10
183.832930
 20
347.000000
 42
-0.033132
  0
VERTEX
  8
0
 10
183.999399
 20
333.219178
 42
-0.038309
  0
VERTEX
  8
0
 10
182.287984
 20
320.203771
 42
-0.035054
  0
VERTEX
  8
0
 10
178.439159
 20
306.686951
 42
-0.021396
  0
VERTEX
  8
0
 10
172.124244
 20
291.335873
 42
0.005817
  0
VERTEX
  8
0
 10
169.726383
 20
285.986792
 42
0.005643
  0
VERTEX
  8
0
 10
167.428576
 20
280.529154
 42
0.005582
  0
VERTEX
  8
0
 10
165.515646
 20
275.684344
 42
0.020716
  0
VERTEX
  8
0
 10
164.472242
 20
272.571885
 42
0.044748
  0
VERTEX
  8
0
 10
163.402182
 20
267.084796
 42
0.040296
  0
VERTEX
  8
0
 10
163.271266
 20
261.295776
 42
0.041612
  0
VERTEX
  8
0
 10
164.055168
 20
255.777592
 42
0.058857
  0
VERTEX
  8
0
 10
165.717297
 20
251.106596
 42
0.000000
  0
VERTEX
  8
0
 10
167.619908
 20
247.261078
 42
0.000000
  0
VERTEX
  8
0
 10
165.257297
 20
244.380539
 42
0.014048
  0
VERTEX
  8
0
 10
164.238665
 20
243.064903
 42
0.009040
  0
VERTEX
  8
0
 10
163.129151
 20
241.486421
 42
0.009086
  0
VERTEX
  8
0
 10
162.098777
 20
239.901385
 42
0.016842
  0
VERTEX
  8
0
 10
161.330253
 20
238.573234
 42
0.000000
  0
VERTEX
  8
0
 10
159.765821
 20
235.646469
 42
0.000000
  0
VERTEX
  8
0
 10
163.632911
 20
238.643236
 42
-0.017823
  0
VERTEX
  8
0
 10
168.057485
 20
241.826296
 42
-0.021596
  0
VERTEX
  8
0
 10
172.429214
 20
244.475460
 42
-0.015701
  0
VERTEX
  8
0
 10
178.008437
 20
247.311036
 42
-0.004714
  0
VERTEX
  8
0
 10
186.671819
 20
251.277841
 42
0.016776
  0
VERTEX
  8
0
 10
196.417974
 20
256.028025
 42
0.027142
  0
VERTEX
  8
0
 10
204.320363
 20
260.779239
 42
0.029631
  0
VERTEX
  8
0
 10
211.149702
 20
266.023335
 42
0.026168
  0
VERTEX
  8
0
 10
217.615943
 20
272.248596
 42
0.030729
  0
VERTEX
  8
0
 10
225.787999
 20
282.137553
 42
0.030519
  0
VERTEX
  8
0
 10
232.706769
 20
292.975500
 42
0.030227
  0
VERTEX
  8
0
 10
238.312567
 20
304.678476
 42
0.028874
  0
VERTEX
  8
0
 10
242.564188
 20
317.150240
 42
-0.002452
  0
VERTEX
  8
0
 10
246.687702
 20
331.724912
 42
-0.017932
  0
VERTEX
  8
0
 10
248.945382
 20
338.618803
 42
-0.033340
  0
VERTEX
  8
0
 10
251.096342
 20
343.448387
 42
-0.023177
  0
VERTEX
  8
0
 10
254.126470
 20
348.596355
 42
-0.065246
  0
VERTEX
  8
0
 10
271.766269
 20
369.175019
 42
-0.043309
  0
VERTEX
  8
0
 10
296.644258
 20
387.902463
 42
-0.040198
  0
VERTEX
  8
0
 10
326.639195
 20
403.455499
 42
-0.036793
  0
VERTEX
  8
0
 10
359.627869
 20
414.550720
 42
-0.008825
  0
VERTEX
  8
0
 10
372.625730
 20
417.638632
 42
-0.008692
  0
VERTEX
  8
0
 10
385.790270
 20
420.282759
 42
-0.004254
  0
VERTEX
  8
0
 10
397.479720
 20
422.317309
 42
-0.729119
  0
SEQEND
  0
POLYLINE
  8
0
 66
1
 70
1
  0
VERTEX
  8
0
 10
178.005077
 20
388.496625
 42
-0.037249
  0
VERTEX
  8
0
 10
183.884018
 20
383.922905
 42
-0.010228
  0
VERTEX
  8
0
 10
192.424442
 20
375.868974
 42
-0.004452
  0
VERTEX
  8
0
 10
201.052187
 20
367.240360
 42
-0.196586
  0
VERTEX
  8
0
 10
202.000000
 20
364.922846
 42
-0.368542
  0
VERTEX
  8
0
 10
201.780036
 20
364.664954
 42
-0.083657
  0
VERTEX
  8
0
 10
201.157950
 20
364.670254
 42
-0.050002
  0
VERTEX
  8
0
 10
200.233458
 20
364.931463
 42
-0.025496
  0
VERTEX
  8
0
 10
199.133448
 20
365.430991
 42
0.039896
  0
VERTEX
  8
0
 10
197.612308
 20
366.069641
 42
0.012855
  0
VERTEX
  8
0
 10
195.268345
 20
366.774322
 42
0.012730
  0
VERTEX
  8
0
 10
192.610189
 20
367.427278
 42
0.013936
  0
VERTEX
  8
0
 10
190.001020
 20
367.922433
 42
-0.003553
  0
VERTEX
  8
0
 10
187.581504
 20
368.329745
 42
-0.005534
  0
VERTEX
  8
0
 10
185.503109
 20
368.718598
 42
-0.001891
  0
VERTEX
  8
0
 10
183.720814
 20
369.079524
 42
-0.164267
  0
VERTEX
  8
0
 10
183.487873
 20
369.215761
 42
-0.059262
  0
VERTEX
  8
0
 10
183.329009
 20
369.449185
 42
-0.000760
  0
VERTEX
  8
0
 10
182.509596
 20
371.032130
 42
-0.002201
  0
VERTEX
  8
0
 10
181.571193
 20
372.871547
 42
-0.001441
  0
VERTEX
  8
0
 10
180.504800
 20
375.000000
 42
0.011522
  0
VERTEX
  8
0
 10
179.178668
 20
377.518764
 42
0.006168
  0
VERTEX
  8
0
 10
177.431569
 20
380.570115
 42
0.006138
  0
VERTEX
  8
0
 10
175.571093
 20
383.641631
 42
0.009541
  0
VERTEX
  8
0
 10
173.884500
 20
386.238691
 42
-0.004231
  0
VERTEX
  8
0
 10
170.006330
 20
392.073784
 42
-0.436906
  0
VERTEX
  8
0
 10
170.217940
 20
392.917659
 42
-0.275727
  0
VERTEX
  8
0
 10
171.331355
 20
392.876661
 42
-0.002955
  0
SEQEND
  0
POLYLINE
  8
0
 66
1
 70
1
  0
VERTEX
  8
0
 10
54.474104
 20
361.750000
 42
-0.024672
  0
VERTEX
  8
0
 10
55.351662
 20
360.366052
 42
-0.164454
  0
VERTEX
  8
0
 10
55.503476
 20
359.575772
 42
-0.164236
  0
VERTEX
  8
0
 10
55.144741
 20
358.854915
 42
-0.024590
  0
VERTEX
  8
0
 10
53.926643
 20
357.755360
 42
-0.033801
  0
VERTEX
  8
0
 10
53.043561
 20
357.128182
 42
-0.043916
  0
VERTEX
  8
0
 10
52.155668
 20
356.685845
 42
-0.050484
  0
VERTEX
  8
0
 10
51.385952
 20
356.469885
 42
-0.183579
  0
VERTEX
  8
0
 10
50.895836
 20
356.564377
 42
-0.238777
  0
VERTEX
  8
0
 10
50.056085
 20
357.938837
 42
-0.058491
  0
VERTEX
  8
0
 10
50.157680
 20
360.670054
 42
-0.060499
  0
VERTEX
  8
0
 10
50.876283
 20
363.218127
 42
-0.302520
  0
VERTEX
  8
0
 10
52.050285
 20
364.000000
 42
-0.158780
  0
VERTEX
  8
0
 10
52.471452
 20
363.862795
 42
-0.029600
  0
VERTEX
  8
0
 10
53.107258
 20
363.339063
 42
-0.029071
  0
VERTEX
  8
0
 10
53.804995
 20
362.611455
 42
-0.022971
  0
SEQEND
  0
POLYLINE
  8
0
 66
1
 70
1
  0
VERTEX
  8
0
 10
192.687998
 20
337.269418
 42
-0.024487
  0
VERTEX
  8
0
 10
195.256389
 20
332.349551
 42
-0.008579
  0
VERTEX
  8
0
 10
198.473209
 20
325.048510
 42
-0.005149
  0
VERTEX
  8
0
 10
201.487161
 20
317.664927
 42
-0.091448
  0
VERTEX
  8
0
 10
201.983178
 20
315.151799
 42
-0.251780
  0
VERTEX
  8
0
 10
201.755395
 20
314.715153
 42
-0.214566
  0
VERTEX
  8
0
 10
201.237916
 20
314.624225
 42
-0.070127
  0
VERTEX
  8
0
 10
200.280030
 20
315.016634
 42
-0.014949
  0
VERTEX
  8
0
 10
198.750000
 20
315.973174
 42
0.014206
  0
VERTEX
  8
0
 10
197.193561
 20
316.949444
 42
0.007068
  0
VERTEX
  8
0
 10
195.170381
 20
318.101584
 42
0.007009
  0
VERTEX
  8
0
 10
193.039008
 20
319.237104
 42
0.010229
  0
VERTEX
  8
0
 10
191.127893
 20
320.172183
 42
0.000000
  0
VERTEX
  8
0
 10
186.755787
 20
322.201616
 42
0.000000
  0
VERTEX
  8
0
 10
187.377893
 20
326.740379
 42
0.012085
  0
VERTEX
  8
0
 10
187.616682
 20
328.862586
 42
0.006279
  0
VERTEX
  8
0
 10
187.817256
 20
331.520507
 42
0.006240
  0
VERTEX
  8
0
 10
187.954953
 20
334.256653
 42
0.009451
  0
VERTEX
  8
0
 10
188.000000
 20
336.639571
 42
-0.016808
  0
VERTEX
  8
0
 10
188.069096
 20
338.694429
 42
-0.027406
  0
VERTEX
  8
0
 10
188.281367
 20
340.425374
 42
-0.026222
  0
VERTEX
  8
0
 10
188.583083
 20
341.718310
 42
-0.333919
  0
VERTEX
  8
0
 10
188.957846
 20
342.000000
 42
-0.212270
  0
VERTEX
  8
0
 10
189.467106
 20
341.773598
 42
-0.016611
  0
VERTEX
  8
0
 10
190.448690
 20
340.610392
 42
-0.020346
  0
VERTEX
  8
0
 10
191.556262
 20
339.081764
 42
-0.014061
  0
SEQEND
  0
POLYLINE
  8
0
 66
1
 70
1
  0
VERTEX
  8
0
 10
149.000000
 20
324.140790
 42
-0.028916
  0
VERTEX
  8
0
 10
148.836983
 20
321.324344
 42
-0.071892
  0
VERTEX
  8
0
 10
148.309186
 20
319.333646
 42
-0.062244
  0
VERTEX
  8
0
 10
147.189785
 20
317.410075
 42
-0.017609
  0
VERTEX
  8
0
 10
144.988863
 20
314.724688
 42
-0.048335
  0
VERTEX
  8
0
 10
141.091293
 20
311.076114
 42
-0.038286
  0
VERTEX
  8
0
 10
136.259414
 20
307.915365
 42
-0.039620
  0
VERTEX
  8
0
 10
131.355888
 20
305.704673
 42
-0.086301
  0
VERTEX
  8
0
 10
127.303656
 20
305.000000
 42
-0.012342
  0
VERTEX
  8
0
 10
124.786520
 20
305.062144
 42
-0.296624
  0
VERTEX
  8
0
 10
124.241460
 20
305.456291
 42
-0.187986
  0
VERTEX
  8
0
 10
124.244331
 20
306.246974
 42
-0.005128
  0
VERTEX
  8
0
 10
125.566604
 20
309.505164
 42
0.040057
  0
VERTEX
  8
0
 10
126.185263
 20
311.399211
 42
0.023678
  0
VERTEX
  8
0
 10
126.630695
 20
313.736862
 42
0.022637
  0
VERTEX
  8
0
 10
126.873439
 20
316.266255
 42
0.024179
  0
VERTEX
  8
0
 10
126.878560
 20
318.751929
 42
0.000000
  0
VERTEX
  8
0
 10
126.623911
 20
324.249282
 42
0.000000
  0
VERTEX
  8
0
 10
133.061956
 20
324.484592
 42
0.020605
  0
VERTEX
  8
0
 10
136.045877
 20
324.717026
 42
0.023720
  0
VERTEX
  8
0
 10
138.861881
 20
325.189912
 42
0.025611
  0
VERTEX
  8
0
 10
141.389367
 20
325.875880
 42
0.038421
  0
VERTEX
  8
0
 10
143.500000
 20
326.750967
 42
-0.004993
  0
VERTEX
  8
0
 10
145.086750
 20
327.536834
 42
-0.006642
  0
VERTEX
  8
0
 10
146.545312
 20
328.217421
 42
-0.004836
  0
VERTEX
  8
0
 10
147.776577
 20
328.757886
 42
-0.065005
  0
VERTEX
  8
0
 10
148.250000
 20
328.891016
 42
-0.384747
  0
VERTEX
  8
0
 10
148.544399
 20
328.693782
 42
-0.022341
  0
VERTEX
  8
0
 10
148.779687
 20
327.540593
 42
-0.024633
  0
VERTEX
  8
0
 10
148.946100
 20
325.996210
 42
-0.014522
  0
SEQEND
  0
POLYLINE
  8
0
 66
1
 70
1
  0
VERTEX
  8
0
 10
146.000000
 20
310.883424
 42
-0.123454
  0
VERTEX
  8
0
 10
145.167054
 20
307.561319
 42
-0.004965
  0
VERTEX
  8
0
 10
139.148329
 20
296.577001
 42
-0.007300
  0
VERTEX
  8
0
 10
133.038184
 20
286.047271
 42
-0.064741
  0
VERTEX
  8
0
 10
129.713447
 20
281.848062
 42
-0.052522
  0
VERTEX
  8
0
 10
126.433433
 20
279.266204
 42
-0.036299
  0
VERTEX
  8
0
 10
122.260311
 20
277.043838
 42
-0.036842
  0
VERTEX
  8
0
 10
117.942333
 20
275.501213
 42
-0.067471
  0
VERTEX
  8
0
 10
114.244938
 20
275.000000
 42
-0.091024
  0
VERTEX
  8
0
 10
113.105282
 20
275.209204
 42
-0.036493
  0
VERTEX
  8
0
 10
111.662797
 20
275.881346
 42
-0.034304
  0
VERTEX
  8
0
 10
110.162110
 20
276.859374
 42
-0.034822
  0
VERTEX
  8
0
 10
108.817226
 20
278.028928
 42
0.000000
  0
VERTEX
  8
0
 10
105.788298
 20
281.057856
 42
0.000000
  0
VERTEX
  8
0
 10
108.349722
 20
284.278928
 42
0.007325
  0
VERTEX
  8
0
 10
109.705943
 20
286.036671
 42
0.001846
  0
VERTEX
  8
0
 10
111.860841
 20
288.938050
 42
0.001884
  0
VERTEX
  8
0
 10
114.299289
 20
292.272893
 42
0.001900
  0
VERTEX
  8
0
 10
116.705573
 20
295.616561
 42
-0.005317
  0
VERTEX
  8
0
 10
120.470050
 20
300.772817
 42
-0.061275
  0
VERTEX
  8
0
 10
122.201046
 20
302.580753
 42
-0.140302
  0
VERTEX
  8
0
 10
123.793168
 20
303.265095
 42
-0.064889
  0
VERTEX
  8
0
 10
126.065935
 20
303.259581
 42
0.088608
  0
VERTEX
  8
0
 10
129.735149
 20
303.423817
 42
0.038659
  0
VERTEX
  8
0
 10
134.410640
 20
304.863784
 42
0.038578
  0
VERTEX
  8
0
 10
138.909881
 20
307.054722
 42
0.071705
  0
VERTEX
  8
0
 10
142.075925
 20
309.580818
 42
-0.024648
  0
VERTEX
  8
0
 10
143.738346
 20
311.184202
 42
-0.099711
  0
VERTEX
  8
0
 10
144.954709
 20
311.879470
 42
-0.290625
  0
VERTEX
  8
0
 10
145.674068
 20
311.699491
 42
-0.192311
  0
SEQEND
  0
POLYLINE
  8
0
 66
1
 70
1
  0
VERTEX
  8
0
 10
177.353187
 20
279.250000
 42
-0.017703
  0
VERTEX
  8
0
 10
178.199900
 20
274.729800
 42
-0.012971
  0
VERTEX
  8
0
 10
178.830243
 20
269.665441
 42
-0.012936
  0
VERTEX
  8
0
 10
179.172133
 20
264.926424
 42
-0.035513
  0
VERTEX
  8
0
 10
179.088861
 20
261.575686
 42
-0.415564
  0
VERTEX
  8
0
 10
178.871462
 20
261.397261
 42
-0.093270
  0
VERTEX
  8
0
 10
178.361156
 20
261.547574
 42
-0.048079
  0
VERTEX
  8
0
 10
177.611992
 20
262.026224
 42
-0.022395
  0
VERTEX
  8
0
 10
176.736353
 20
262.777958
 42
0.033904
  0
VERTEX
  8
0
 10
175.607095
 20
263.703173
 42
0.016575
  0
VERTEX
  8
0
 10
174.055117
 20
264.732171
 42
0.016361
  0
VERTEX
  8
0
 10
172.364039
 20
265.699543
 42
0.022782
  0
VERTEX
  8
0
 10
170.787481
 20
266.444329
 42
0.000000
  0
VERTEX
  8
0
 10
167.102257
 20
267.984114
 42
0.000000
  0
VERTEX
  8
0
 10
168.928816
 20
273.242057
 42
-0.011955
  0
VERTEX
  8
0
 10
170.722209
 20
278.031907
 42
-0.017173
  0
VERTEX
  8
0
 10
172.554891
 20
282.174549
 42
-0.011185
  0
VERTEX
  8
0
 10
174.253768
 20
285.492483
 42
-0.275467
  0
VERTEX
  8
0
 10
175.105059
 20
286.000000
 42
-0.312536
  0
VERTEX
  8
0
 10
175.451326
 20
285.760128
 42
-0.009406
  0
VERTEX
  8
0
 10
176.068483
 20
284.017187
 42
-0.015525
  0
VERTEX
  8
0
 10
176.720010
 20
281.837492
 42
-0.009709
  0
SEQEND
  0
POLYLINE
  8
0
 66
1
 70
1
  0
VERTEX
  8
0
 10
106.362196
 20
277.498516
 42
0.105683
  0
VERTEX
  8
0
 10
106.809067
 20
276.811950
 42
0.029606
  0
VERTEX
  8
0
 10
107.773616
 20
275.959082
 42
0.028456
  0
VERTEX
  8
0
 10
109.006725
 20
275.101026
 42
0.026523
  0
VERTEX
  8
0
 10
110.357936
 20
274.366355
 42
0.071520
  0
VERTEX
  8
0
 10
113.397613
 20
273.418827
 42
0.067344
  0
VERTEX
  8
0
 10
116.646097
 20
273.337949
 42
0.057307
  0
VERTEX
  8
0
 10
120.235754
 20
274.156066
 42
0.033240
  0
VERTEX
  8
0
 10
124.306081
 20
275.901134
 42
-0.023880
  0
VERTEX
  8
0
 10
127.029701
 20
277.129631
 42
-0.444079
  0
VERTEX
  8
0
 10
127.783686
 20
276.756201
 42
-0.179555
  0
VERTEX
  8
0
 10
127.679008
 20
275.454213
 42
-0.007590
  0
VERTEX
  8
0
 10
125.628264
 20
271.216756
 42
0.011131
  0
VERTEX
  8
0
 10
124.557727
 20
268.964166
 42
0.005419
  0
VERTEX
  8
0
 10
123.286759
 20
266.044319
 42
0.005372
  0
VERTEX
  8
0
 10
122.029261
 20
262.976119
 42
0.007732
  0
VERTEX
  8
0
 10
120.987707
 20
260.231990
 42
-0.020014
  0
VERTEX
  8
0
 10
119.611535
 20
256.858398
 42
-0.048375
  0
VERTEX
  8
0
 10
118.265320
 20
254.528928
 42
-0.052635
  0
VERTEX
  8
0
 10
116.569984
 20
252.618679
 42
-0.027738
  0
VERTEX
  8
0
 10
114.109443
 20
250.611382
 42
-0.028903
  0
VERTEX
  8
0
 10
107.334597
 20
246.258923
 42
-0.059700
  0
VERTEX
  8
0
 10
101.531128
 20
243.846221
 42
-0.079404
  0
VERTEX
  8
0
 10
96.519962
 20
243.260971
 42
-0.109190
  0
VERTEX
  8
0
 10
92.150848
 20
244.421993
 42
-0.028953
  0
VERTEX
  8
0
 10
90.947119
 20
245.135615
 42
-0.037114
  0
VERTEX
  8
0
 10
89.935673
 20
245.932378
 42
-0.040581
  0
VERTEX
  8
0
 10
89.225907
 20
246.696919
 42
-0.175585
  0
VERTEX
  8
0
 10
89.034421
 20
247.275680
 42
-0.102312
  0
VERTEX
  8
0
 10
90.234617
 20
252.355326
 42
-0.008157
  0
VERTEX
  8
0
 10
96.298648
 20
264.837097
 42
-0.004517
  0
VERTEX
  8
0
 10
102.966158
 20
277.719696
 42
-0.277880
  0
VERTEX
  8
0
 10
105.091972
 20
279.000000
 42
-0.165475
  0
VERTEX
  8
0
 10
105.398823
 20
278.895588
 42
-0.053221
  0
VERTEX
  8
0
 10
105.751396
 20
278.558939
 42
-0.046373
  0
VERTEX
  8
0
 10
106.090544
 20
278.073150
 42
-0.037615
  0
SEQEND
  0
POLYLINE
  8
0
 66
1
 70
1
  0
VERTEX
  8
0
 10
175.841822
 20
258.633027
 42
-0.025231
  0
VERTEX
  8
0
 10
178.610309
 20
255.843281
 42
-0.180011
  0
VERTEX
  8
0
 10
179.295139
 20
254.103057
 42
-0.238565
  0
VERTEX
  8
0
 10
178.584233
 20
252.630115
 42
-0.045283
  0
VERTEX
  8
0
 10
175.984797
 20
250.992244
 42
-0.017934
  0
VERTEX
  8
0
 10
174.368681
 20
250.239526
 42
-0.024765
  0
VERTEX
  8
0
 10
172.865911
 20
249.690127
 42
-0.023015
  0
VERTEX
  8
0
 10
171.620796
 20
249.365620
 42
-0.192969
  0
VERTEX
  8
0
 10
171.059308
 20
249.463345
 42
-0.163586
  0
VERTEX
  8
0
 10
170.053940
 20
250.674252
 42
-0.012102
  0
VERTEX
  8
0
 10
168.579928
 20
254.783366
 42
-0.016996
  0
VERTEX
  8
0
 10
167.345769
 20
258.976775
 42
-0.063143
  0
VERTEX
  8
0
 10
167.000000
 20
261.703819
 42
-0.026047
  0
VERTEX
  8
0
 10
167.075301
 20
263.148316
 42
-0.323929
  0
VERTEX
  8
0
 10
167.421173
 20
263.534264
 42
-0.164581
  0
VERTEX
  8
0
 10
168.097181
 20
263.457783
 42
-0.007272
  0
VERTEX
  8
0
 10
170.250000
 20
262.408707
 42
-0.018980
  0
VERTEX
  8
0
 10
171.665106
 20
261.624681
 42
-0.012501
  0
VERTEX
  8
0
 10
173.233223
 20
260.622006
 42
-0.012585
  0
VERTEX
  8
0
 10
174.711931
 20
259.568426
 42
-0.023639
  0
SEQEND
  0
POLYLINE
  8
0
 66
1
 70
1
  0
VERTEX
  8
0
 10
116.062330
 20
242.379351
 42
0.020035
  0
VERTEX
  8
0
 10
115.653552
 20
239.534885
 42
0.007974
  0
VERTEX
  8
0
 10
115.312059
 20
235.606926
 42
0.007876
  0
VERTEX
  8
0
 10
115.077725
 20
231.352203
 42
0.009817
  0
VERTEX
  8
0
 10
115.000000
 20
227.394080
 42
-0.007268
  0
VERTEX
  8
0
 10
114.915770
 20
221.599595
 42
-0.052397
  0
VERTEX
  8
0
 10
114.543840
 20
218.835820
 42
-0.077632
  0
VERTEX
  8
0
 10
113.646263
 20
216.673299
 42
-0.025811
  0
VERTEX
  8
0
 10
111.703492
 20
213.833466
 42
-0.043258
  0
VERTEX
  8
0
 10
108.075826
 20
209.844981
 42
-0.063010
  0
VERTEX
  8
0
 10
104.213062
 20
207.084851
 42
-0.070374
  0
VERTEX
  8
0
 10
100.137169
 20
205.578284
 42
-0.074176
  0
VERTEX
  8
0
 10
95.877762
 20
205.299082
 42
-0.055936
  0
VERTEX
  8
0
 10
91.373768
 20
206.185762
 42
-0.094398
  0
VERTEX
  8
0
 10
87.996606
 20
208.006116
 42
-0.104334
  0
VERTEX
  8
0
 10
85.744623
 20
210.789408
 42
-0.081053
  0
VERTEX
  8
0
 10
84.551146
 20
214.507503
 42
-0.049441
  0
VERTEX
  8
0
 10
84.325675
 20
219.008733
 42
-0.009989
  0
VERTEX
  8
0
 10
84.876212
 20
227.006434
 42
-0.010919
  0
VERTEX
  8
0
 10
85.776856
 20
235.120680
 42
-0.032247
  0
VERTEX
  8
0
 10
86.873487
 20
240.619343
 42
-0.043479
  0
VERTEX
  8
0
 10
87.582936
 20
242.573624
 42
-0.232764
  0
VERTEX
  8
0
 10
88.440428
 20
243.264608
 42
-0.124384
  0
VERTEX
  8
0
 10
89.865073
 20
243.226704
 42
-0.009691
  0
VERTEX
  8
0
 10
93.539510
 20
242.116271
 42
0.069233
  0
VERTEX
  8
0
 10
97.362301
 20
241.441889
 42
0.067461
  0
VERTEX
  8
0
 10
101.259426
 20
241.826413
 42
0.053240
  0
VERTEX
  8
0
 10
105.641807
 20
243.373908
 42
0.024205
  0
VERTEX
  8
0
 10
111.000000
 20
246.261090
 42
-0.011452
  0
VERTEX
  8
0
 10
113.131463
 20
247.480719
 42
-0.019384
  0
VERTEX
  8
0
 10
114.976122
 20
248.390209
 42
-0.014364
  0
VERTEX
  8
0
 10
116.460218
 20
249.001250
 42
-0.401235
  0
VERTEX
  8
0
 10
116.812330
 20
248.851842
 42
-0.124654
  0
VERTEX
  8
0
 10
116.894397
 20
248.337864
 42
-0.006417
  0
VERTEX
  8
0
 10
116.720853
 20
246.651147
 42
-0.009877
  0
VERTEX
  8
0
 10
116.446593
 20
244.633686
 42
-0.006982
  0
SEQEND
  0
POLYLINE
  8
0
 66
1
 70
1
  0
VERTEX
  8
0
 10
117.437920
 20
208.250000
 42
0.019910
  0
VERTEX
  8
0
 10
119.245469
 20
203.199565
 42
0.017085
  0
VERTEX
  8
0
 10
121.535461
 20
198.039449
 42
0.016033
  0
VERTEX
  8
0
 10
124.328083
 20
192.726076
 42
0.013028
  0
VERTEX
  8
0
 10
127.646955
 20
187.214664
 42
-0.016508
  0
VERTEX
  8
0
 10
129.165956
 20
184.651982
 42
-0.038283
  0
VERTEX
  8
0
 10
130.087993
 20
182.617531
 42
-0.052400
  0
VERTEX
  8
0
 10
130.502141
 20
180.956077
 42
-0.096672
  0
VERTEX
  8
0
 10
130.428436
 20
179.570889
 42
-0.098529
  0
VERTEX
  8
0
 10
129.207961
 20
176.994028
 42
-0.035788
  0
VERTEX
  8
0
 10
126.558978
 20
173.913993
 42
-0.035902
  0
VERTEX
  8
0
 10
123.349548
 20
171.115090
 42
-0.061976
  0
VERTEX
  8
0
 10
120.282119
 20
169.352227
 42
-0.089994
  0
VERTEX
  8
0
 10
114.233903
 20
168.010441
 42
-0.068145
  0
VERTEX
  8
0
 10
107.453990
 20
168.672017
 42
-0.070066
  0
VERTEX
  8
0
 10
101.300826
 20
171.081662
 42
-0.110158
  0
VERTEX
  8
0
 10
97.097784
 20
174.862675
 42
-0.052139
  0
VERTEX
  8
0
 10
93.355242
 20
181.481929
 42
-0.016626
  0
VERTEX
  8
0
 10
89.182011
 20
192.017165
 42
-0.008679
  0
VERTEX
  8
0
 10
85.505751
 20
202.871947
 42
-0.280690
  0
VERTEX
  8
0
 10
86.136201
 20
205.469534
 42
-0.233603
  0
VERTEX
  8
0
 10
86.544492
 20
205.607755
 42
-0.023124
  0
VERTEX
  8
0
 10
87.593176
 20
205.418236
 42
-0.025344
  0
VERTEX
  8
0
 10
88.886462
 20
205.052349
 42
-0.017350
  0
VERTEX
  8
0
 10
90.314341
 20
204.513127
 42
0.026228
  0
VERTEX
  8
0
 10
91.935737
 20
203.933487
 42
0.018280
  0
VERTEX
  8
0
 10
93.816786
 20
203.444481
 42
0.018492
  0
VERTEX
  8
0
 10
95.660570
 20
203.107445
 42
0.035971
  0
VERTEX
  8
0
 10
97.152157
 20
203.000000
 42
0.077409
  0
VERTEX
  8
0
 10
100.794265
 20
203.567261
 42
0.042606
  0
VERTEX
  8
0
 10
104.967434
 20
205.303081
 42
0.042023
  0
VERTEX
  8
0
 10
108.891279
 20
207.781397
 42
0.062583
  0
VERTEX
  8
0
 10
111.796515
 20
210.611694
 42
-0.009541
  0
VERTEX
  8
0
 10
112.873564
 20
211.909943
 42
-0.014038
  0
VERTEX
  8
0
 10
113.872518
 20
213.004652
 42
-0.009265
  0
VERTEX
  8
0
 10
114.735787
 20
213.866370
 42
-0.193855
  0
VERTEX
  8
0
 10
115.067378
 20
213.999971
 42
-0.295943
  0
VERTEX
  8
0
 10
115.351944
 20
213.815394
 42
-0.007222
  0
VERTEX
  8
0
 10
115.997768
 20
212.310929
 42
-0.013378
  0
VERTEX
  8
0
 10
116.705775
 20
210.454115
 42
-0.008412
  0
SEQEND
  0
POLYLINE
  8
0
 66
1
 70
1
  0
VERTEX
  8
0
 10
136.075686
 20
176.406400
 42
0.022726
  0
VERTEX
  8
0
 10
137.401414
 20
175.111389
 42
0.006721
  0
VERTEX
  8
0
 10
139.544858
 20
173.251100
 42
0.006730
  0
VERTEX
  8
0
 10
142.013535
 20
171.222350
 42
0.007203
  0
VERTEX
  8
0
 10
144.481279
 20
169.307027
 42
-0.014084
  0
VERTEX
  8
0
 10
148.186154
 20
166.348943
 42
-0.074117
  0
VERTEX
  8
0
 10
149.899672
 20
164.398737
 42
-0.072360
  0
VERTEX
  8
0
 10
150.989136
 20
162.013488
 42
-0.013066
  0
VERTEX
  8
0
 10
152.235812
 20
157.286335
 42
0.023015
  0
VERTEX
  8
0
 10
153.231325
 20
153.794737
 42
0.011370
  0
VERTEX
  8
0
 10
154.797965
 20
149.455911
 42
0.011257
  0
VERTEX
  8
0
 10
156.630778
 20
145.019314
 42
0.016143
  0
VERTEX
  8
0
 10
158.467932
 20
141.182440
 42
-0.006434
  0
VERTEX
  8
0
 10
160.141718
 20
137.854244
 42
-0.010353
  0
VERTEX
  8
0
 10
161.472141
 20
134.971611
 42
-0.004415
  0
VERTEX
  8
0
 10
162.516872
 20
132.520211
 42
-0.303712
  0
VERTEX
  8
0
 10
162.433640
 20
132.100306
 42
-0.283895
  0
VERTEX
  8
0
 10
161.010553
 20
131.763848
 42
-0.003751
  0
VERTEX
  8
0
 10
152.041200
 20
134.821759
 42
-0.010948
  0
VERTEX
  8
0
 10
142.996653
 20
138.205195
 42
-0.016814
  0
VERTEX
  8
0
 10
135.340167
 20
141.564743
 42
-0.025397
  0
VERTEX
  8
0
 10
127.458949
 20
145.848757
 42
-0.018401
  0
VERTEX
  8
0
 10
119.130044
 20
151.371011
 42
-0.018624
  0
VERTEX
  8
0
 10
111.653218
 20
157.168015
 42
-0.041547
  0
VERTEX
  8
0
 10
106.539732
 20
162.224616
 42
-0.008337
  0
VERTEX
  8
0
 10
105.183619
 20
163.863466
 42
-0.011901
  0
VERTEX
  8
0
 10
104.039796
 20
165.365599
 42
-0.007932
  0
VERTEX
  8
0
 10
103.142121
 20
166.646877
 42
-0.149926
  0
VERTEX
  8
0
 10
103.000000
 20
167.110193
 42
-0.378821
  0
VERTEX
  8
0
 10
103.204833
 20
167.341751
 42
-0.044472
  0
VERTEX
  8
0
 10
103.952748
 20
167.366774
 42
-0.035781
  0
VERTEX
  8
0
 10
104.999509
 20
167.233147
 42
-0.020202
  0
VERTEX
  8
0
 10
106.243398
 20
166.930194
 42
0.044355
  0
VERTEX
  8
0
 10
110.076622
 20
166.190411
 42
0.040812
  0
VERTEX
  8
0
 10
114.090282
 20
166.108446
 42
0.041464
  0
VERTEX
  8
0
 10
117.996313
 20
166.675000
 42
0.049915
  0
VERTEX
  8
0
 10
121.508577
 20
167.864982
 42
0.058863
  0
VERTEX
  8
0
 10
124.621048
 20
169.747683
 42
0.027065
  0
VERTEX
  8
0
 10
128.202579
 20
172.861884
 42
0.022149
  0
VERTEX
  8
0
 10
131.293361
 20
176.135538
 42
0.180003
  0
VERTEX
  8
0
 10
132.000000
 20
178.034796
 42
-0.232151
  0
VERTEX
  8
0
 10
132.351426
 20
178.750893
 42
-0.265610
  0
VERTEX
  8
0
 10
133.098320
 20
178.855478
 42
-0.086787
  0
VERTEX
  8
0
 10
134.368289
 20
178.071164
 42
-0.023187
  0
SEQEND
  0
POLYLINE
  8
0
 66
1
 70
1
  0
VERTEX
  8
0
 10
154.500000
 20
129.890405
 42
0.007313
  0
VERTEX
  8
0
 10
156.922903
 20
129.171921
 42
0.008572
  0
VERTEX
  8
0
 10
159.241227
 20
128.563853
 42
0.007700
  0
VERTEX
  8
0
 10
161.212653
 20
128.114786
 42
0.051072
  0
VERTEX
  8
0
 10
162.214816
 20
128.007639
 42
-0.204743
  0
VERTEX
  8
0
 10
163.934604
 20
127.263519
 42
-0.106871
  0
VERTEX
  8
0
 10
165.168247
 20
125.231383
 42
-0.053269
  0
VERTEX
  8
0
 10
166.022257
 20
121.521018
 42
-0.013210
  0
VERTEX
  8
0
 10
166.604600
 20
115.302303
 42
-0.035318
  0
VERTEX
  8
0
 10
166.565330
 20
104.559473
 42
-0.046646
  0
VERTEX
  8
0
 10
164.934303
 20
94.912487
 42
-0.054681
  0
VERTEX
  8
0
 10
162.044685
 20
87.461604
 42
-0.156799
  0
VERTEX
  8
0
 10
158.147588
 20
83.602395
 42
-0.039604
  0
VERTEX
  8
0
 10
156.714088
 20
83.012676
 42
-0.011496
  0
VERTEX
  8
0
 10
154.420792
 20
82.333007
 42
-0.011480
  0
VERTEX
  8
0
 10
151.792892
 20
81.683852
 42
-0.012030
  0
VERTEX
  8
0
 10
149.178513
 20
81.167052
 42
0.019635
  0
VERTEX
  8
0
 10
146.514599
 20
80.598239
 42
0.016424
  0
VERTEX
  8
0
 10
143.737779
 20
79.792303
 42
0.016738
  0
VERTEX
  8
0
 10
141.245854
 20
78.886085
 42
0.042853
  0
VERTEX
  8
0
 10
139.533847
 20
78.020919
 42
-0.022974
  0
VERTEX
  8
0
 10
137.884642
 20
77.103535
 42
-0.009949
  0
VERTEX
  8
0
 10
135.613723
 20
76.029435
 42
-0.009820
  0
VERTEX
  8
0
 10
133.149001
 20
74.980788
 42
-0.012854
  0
VERTEX
  8
0
 10
130.855334
 20
74.125513
 42
0.002224
  0
VERTEX
  8
0
 10
128.675349
 20
73.365011
 42
0.002388
  0
VERTEX
  8
0
 10
126.553589
 20
72.602797
 42
0.002259
  0
VERTEX
  8
0
 10
124.737592
 20
71.931302
 42
0.011327
  0
VERTEX
  8
0
 10
123.731353
 20
71.527829
 42
-0.033486
  0
VERTEX
  8
0
 10
122.759516
 20
71.187277
 42
-0.391105
  0
VERTEX
  8
0
 10
122.432000
 20
71.355928
 42
-0.170439
  0
VERTEX
  8
0
 10
122.425495
 20
71.897745
 42
-0.009423
  0
VERTEX
  8
0
 10
123.006259
 20
73.516462
 42
-0.022311
  0
VERTEX
  8
0
 10
123.546005
 20
74.765358
 42
-0.011861
  0
VERTEX
  8
0
 10
124.318479
 20
76.262752
 42
-0.011783
  0
VERTEX
  8
0
 10
125.181984
 20
77.758539
 42
-0.017916
  0
VERTEX
  8
0
 10
126.007979
 20
79.011205
 42
0.000000
  0
VERTEX
  8
0
 10
127.966147
 20
81.761199
 42
0.000000
  0
VERTEX
  8
0
 10
120.733074
 20
80.381777
 42
-0.001023
  0
VERTEX
  8
0
 10
117.929336
 20
79.853021
 42
-0.001566
  0
VERTEX
  8
0
 10
115.496320
 20
79.407215
 42
-0.000525
  0
VERTEX
  8
0
 10
113.391221
 20
79.030588
 42
-0.043350
  0
VERTEX
  8
0
 10
113.062909
 20
79.001178
 42
-0.617454
  0
VERTEX
  8
0
 10
113.003344
 20
79.119263
 42
-0.010282
  0
VERTEX
  8
0
 10
113.578081
 20
79.860279
 42
-0.013637
  0
VERTEX
  8
0
 10
114.385288
 20
80.804125
 42
-0.007297
  0
VERTEX
  8
0
 10
115.430475
 20
81.927432
 42
-0.065053
  0
VERTEX
  8
0
 10
118.911676
 20
84.724688
 42
-0.041524
  0
VERTEX
  8
0
 10
123.561641
 20
87.051535
 42
-0.038375
  0
VERTEX
  8
0
 10
128.981010
 20
88.753248
 42
-0.034766
  0
VERTEX
  8
0
 10
134.779178
 20
89.677295
 42
0.020044
  0
VERTEX
  8
0
 10
139.840201
 20
90.331846
 42
0.099311
  0
VERTEX
  8
0
 10
142.507111
 20
91.356048
 42
0.115393
  0
VERTEX
  8
0
 10
144.371463
 20
93.254336
 42
0.031443
  0
VERTEX
  8
0
 10
146.339358
 20
97.000000
 42
0.071574
  0
VERTEX
  8
0
 10
147.773548
 20
102.025827
 42
0.031569
  0
VERTEX
  8
0
 10
148.271482
 20
108.933875
 42
0.028927
  0
VERTEX
  8
0
 10
147.883985
 20
116.836095
 42
0.025372
  0
VERTEX
  8
0
 10
146.586873
 20
125.000000
 42
-0.000890
  0
VERTEX
  8
0
 10
145.979202
 20
127.900500
 42
-0.001388
  0
VERTEX
  8
0
 10
145.467060
 20
130.401740
 42
-0.000375
  0
VERTEX
  8
0
 10
145.028170
 20
132.584356
 42
-0.048888
  0
VERTEX
  8
0
 10
145.000818
 20
132.856989
 42
-0.434861
  0
VERTEX
  8
0
 10
145.103473
 20
132.953141
 42
-0.034829
  0
VERTEX
  8
0
 10
145.514303
 20
132.896372
 42
-0.029956
  0
VERTEX
  8
0
 10
146.078712
 20
132.742089
 42
-0.016415
  0
VERTEX
  8
0
 10
146.750000
 20
132.489755
 42
0.014682
  0
VERTEX
  8
0
 10
147.775228
 20
132.100317
 42
0.002512
  0
VERTEX
  8
0
 10
149.748437
 20
131.427454
 42
0.002737
  0
VERTEX
  8
0
 10
152.074556
 20
130.661415
 42
0.002439
  0
SEQEND
  0
POLYLINE
  8
0
 66
1
 70
1
  0
VERTEX
  8
0
 10
244.284556
 20
111.750000
 42
0.021649
  0
VERTEX
  8
0
 10
248.448698
 20
103.911533
 42
0.025046
  0
VERTEX
  8
0
 10
253.093672
 20
96.848044
 42
0.026459
  0
VERTEX
  8
0
 10
258.156802
 20
90.646624
 42
0.031560
  0
VERTEX
  8
0
 10
263.574454
 20
85.392241
 42
-0.007219
  0
VERTEX
  8
0
 10
265.653612
 20
83.563381
 42
-0.010886
  0
VERTEX
  8
0
 10
267.406246
 20
81.905418
 42
-0.005930
  0
VERTEX
  8
0
 10
268.821336
 20
80.473584
 42
-0.194305
  0
VERTEX
  8
0
 10
269.000000
 20
80.031192
 42
-0.377910
  0
VERTEX
  8
0
 10
268.729923
 20
79.724895
 42
-0.003584
  0
VERTEX
  8
0
 10
265.525340
 20
79.343848
 42
-0.009500
  0
VERTEX
  8
0
 10
261.706774
 20
78.990835
 42
-0.005737
  0
VERTEX
  8
0
 10
257.171369
 20
78.710593
 42
0.009699
  0
VERTEX
  8
0
 10
251.707407
 20
78.329497
 42
0.013661
  0
VERTEX
  8
0
 10
246.856819
 20
77.762561
 42
0.015515
  0
VERTEX
  8
0
 10
242.710783
 20
77.030787
 42
0.028989
  0
VERTEX
  8
0
 10
239.421369
 20
76.142723
 42
-0.027360
  0
VERTEX
  8
0
 10
236.444557
 20
75.328651
 42
-0.013262
  0
VERTEX
  8
0
 10
232.564805
 20
74.599720
 42
-0.012815
  0
VERTEX
  8
0
 10
228.346407
 20
74.032916
 42
-0.014590
  0
VERTEX
  8
0
 10
224.283015
 20
73.712227
 42
-0.003750
  0
VERTEX
  8
0
 10
218.843866
 20
73.483206
 42
-0.043392
  0
VERTEX
  8
0
 10
216.714275
 20
73.594362
 42
-0.220214
  0
VERTEX
  8
0
 10
215.974181
 20
74.071236
 42
-0.271998
  0
VERTEX
  8
0
 10
215.946959
 20
74.877431
 42
-0.063255
  0
VERTEX
  8
0
 10
217.224748
 20
76.653219
 42
-0.017833
  0
VERTEX
  8
0
 10
219.642271
 20
79.069096
 42
-0.018606
  0
VERTEX
  8
0
 10
222.302485
 20
81.365756
 42
-0.042730
  0
VERTEX
  8
0
 10
224.500000
 20
82.835745
 42
0.020106
  0
VERTEX
  8
0
 10
225.284033
 20
83.310385
 42
0.127665
  0
VERTEX
  8
0
 10
225.592867
 20
83.653913
 42
0.431410
  0
VERTEX
  8
0
 10
225.516115
 20
83.873491
 42
0.099937
  0
VERTEX
  8
0
 10
225.087858
 20
83.969591
 42
0.094092
  0
VERTEX
  8
0
 10
224.288997
 20
83.835666
 42
0.014779
  0
VERTEX
  8
0
 10
222.802686
 20
83.236340
 42
0.015976
  0
VERTEX
  8
0
 10
221.073622
 20
82.412181
 42
0.013338
  0
VERTEX
  8
0
 10
219.291559
 20
81.430714
 42
-0.020780
  0
VERTEX
  8
0
 10
216.971509
 20
80.197581
 42
-0.051251
  0
VERTEX
  8
0
 10
215.158862
 20
79.547042
 42
-0.063737
  0
VERTEX
  8
0
 10
213.505289
 20
79.356277
 42
-0.050984
  0
VERTEX
  8
0
 10
211.722157
 20
79.561025
 42
0.000000
  0
VERTEX
  8
0
 10
208.536910
 20
80.260622
 42
0.000000
  0
VERTEX
  8
0
 10
212.345606
 20
83.552981
 42
-0.036126
  0
VERTEX
  8
0
 10
217.344735
 20
87.279653
 42
-0.071823
  0
VERTEX
  8
0
 10
221.835498
 20
89.311943
 42
-0.050622
  0
VERTEX
  8
0
 10
227.671261
 20
90.376368
 42
-0.010744
  0
VERTEX
  8
0
 10
238.000000
 20
90.973701
 42
0.000000
  0
VERTEX
  8
0
 10
252.500000
 20
91.500000
 42
0.000000
  0
VERTEX
  8
0
 10
244.500000
 20
97.961429
 42
-0.011971
  0
VERTEX
  8
0
 10
237.676199
 20
103.748183
 42
-0.011271
  0
VERTEX
  8
0
 10
230.995779
 20
109.969504
 42
-0.009623
  0
VERTEX
  8
0
 10
225.381874
 20
115.653659
 42
-0.067236
  0
VERTEX
  8
0
 10
223.102426
 20
118.808615
 42
-0.108966
  0
VERTEX
  8
0
 10
222.749110
 20
120.064103
 42
-0.352083
  0
VERTEX
  8
0
 10
223.218327
 20
120.721616
 42
-0.065695
  0
VERTEX
  8
0
 10
224.915502
 20
120.965506
 42
-0.002881
  0
VERTEX
  8
0
 10
230.901198
 20
121.000000
 42
0.000000
  0
VERTEX
  8
0
 10
239.872764
 20
121.000000
 42
0.000000
  0
SEQEND
  0
POLYLINE
  8
0
 66
1
 70
1
  0
VERTEX
  8
0
 10
306.000000
 20
345.514412
 42
0.014314
  0
VERTEX
  8
0
 10
298.911042
 20
344.258908
 42
0.015166
  0
VERTEX
  8
0
 10
292.042158
 20
342.619808
 42
0.132253
  0
VERTEX
  8
0
 10
290.786882
 20
341.888436
 42
0.708756
  0
VERTEX
  8
0
 10
291.000000
 20
341.450492
 42
-0.005972
  0
VERTEX
  8
0
 10
293.155643
 20
341.673997
 42
-0.000708
  0
VERTEX
  8
0
 10
297.946852
 20
342.106162
 42
-0.000846
  0
VERTEX
  8
0
 10
303.644543
 20
342.602249
 42
-0.000694
  0
VERTEX
  8
0
 10
309.733965
 20
343.113559
 42
-0.027105
  0
VERTEX
  8
0
 10
328.516216
 20
343.643122
 42
-0.028800
  0
VERTEX
  8
0
 10
346.864487
 20
342.105775
 42
-0.028930
  0
VERTEX
  8
0
 10
364.837903
 20
338.480744
 42
-0.027887
  0
VERTEX
  8
0
 10
382.500000
 20
332.772005
 42
0.000216
  0
VERTEX
  8
0
 10
386.092627
 20
331.387029
 42
0.000266
  0
VERTEX
  8
0
 10
389.443750
 20
330.098860
 42
0.000219
  0
VERTEX
  8
0
 10
392.260702
 20
329.019158
 42
0.001957
  0
VERTEX
  8
0
 10
393.500000
 20
328.550324
 42
0.684284
  0
VERTEX
  8
0
 10
393.593454
 20
328.655100
 42
0.118705
  0
VERTEX
  8
0
 10
393.332140
 20
328.960257
 42
0.017191
  0
VERTEX
  8
0
 10
392.063587
 20
329.813222
 42
0.005484
  0
VERTEX
  8
0
 10
390.120050
 20
330.995770
 42
0.027965
  0
VERTEX
  8
0
 10
383.270141
 20
334.559528
 42
0.013493
  0
VERTEX
  8
0
 10
374.145651
 20
338.383216
 42
0.013464
  0
VERTEX
  8
0
 10
364.588939
 20
341.795165
 42
0.022044
  0
VERTEX
  8
0
 10
356.308919
 20
344.103752
 42
0.035176
  0
VERTEX
  8
0
 10
345.945905
 20
345.749619
 42
0.014789
  0
VERTEX
  8
0
 10
331.848619
 20
346.562635
 42
0.014881
  0
VERTEX
  8
0
 10
317.458285
 20
346.537771
 42
0.028802
  0
SEQEND
  0
POLYLINE
  8
0
 66
1
 70
1
  0
VERTEX
  8
0
 10
286.883799
 20
315.977926
 42
-0.016850
  0
VERTEX
  8
0
 10
295.681862
 20
311.375959
 42
-0.022202
  0
VERTEX
  8
0
 10
303.352323
 20
306.566712
 42
-0.022285
  0
VERTEX
  8
0
 10
310.543605
 20
301.111394
 42
-0.017184
  0
VERTEX
  8
0
 10
317.894672
 20
294.560392
 42
-0.024223
  0
VERTEX
  8
0
 10
323.994596
 20
288.143545
 42
-0.009960
  0
VERTEX
  8
0
 10
331.653064
 20
278.896929
 42
-0.004369
  0
VERTEX
  8
0
 10
339.131073
 20
269.322459
 42
-0.165058
  0
VERTEX
  8
0
 10
340.000000
 20
266.761983
 42
0.057458
  0
VERTEX
  8
0
 10
340.043488
 20
266.384796
 42
0.172728
  0
VERTEX
  8
0
 10
340.181636
 20
266.170052
 42
0.253464
  0
VERTEX
  8
0
 10
340.383239
 20
266.137397
 42
0.112852
  0
VERTEX
  8
0
 10
340.618336
 20
266.285002
 42
0.328213
  0
VERTEX
  8
0
 10
340.805567
 20
267.514452
 42
0.005903
  0
VERTEX
  8
0
 10
337.462248
 20
273.708511
 42
0.014051
  0
VERTEX
  8
0
 10
333.652630
 20
280.138697
 42
0.018038
  0
VERTEX
  8
0
 10
329.776142
 20
285.816762
 42
0.033314
  0
VERTEX
  8
0
 10
320.138682
 20
297.219263
 42
0.041322
  0
VERTEX
  8
0
 10
309.695930
 20
306.376290
 42
0.042347
  0
VERTEX
  8
0
 10
298.115722
 20
313.518520
 42
0.038071
  0
VERTEX
  8
0
 10
285.084844
 20
318.903957
 42
0.003038
  0
VERTEX
  8
0
 10
278.316417
 20
321.070002
 42
0.693604
  0
VERTEX
  8
0
 10
278.023738
 20
320.694136
 42
0.142058
  0
VERTEX
  8
0
 10
279.011870
 20
319.796708
 42
0.001718
  0
SEQEND
  0
POLYLINE
  8
0
 66
1
 70
1
  0
VERTEX
  8
0
 10
263.041627
 20
297.794409
 42
0.133574
  0
VERTEX
  8
0
 10
263.133451
 20
297.356404
 42
0.009239
  0
VERTEX
  8
0
 10
263.733745
 20
296.232870
 42
0.012627
  0
VERTEX
  8
0
 10
264.518389
 20
294.907207
 42
0.009137
  0
VERTEX
  8
0
 10
265.456230
 20
293.469361
 42
-0.071752
  0
VERTEX
  8
0
 10
270.174207
 20
283.776065
 42
-0.025152
  0
VERTEX
  8
0
 10
274.157471
 20
268.767480
 42
-0.024079
  0
VERTEX
  8
0
 10
276.980886
 20
251.379864
 42
-0.024030
  0
VERTEX
  8
0
 10
278.121942
 20
233.789414
 42
0.000000
  0
VERTEX
  8
0
 10
278.243884
 20
226.500000
 42
0.000000
  0
VERTEX
  8
0
 10
279.190137
 20
232.500000
 42
0.037683
  0
VERTEX
  8
0
 10
279.791508
 20
239.899838
 42
0.012670
  0
VERTEX
  8
0
 10
279.579280
 20
250.738503
 42
0.012989
  0
VERTEX
  8
0
 10
278.789959
 20
261.854004
 42
0.026909
  0
VERTEX
  8
0
 10
277.484240
 20
270.454222
 42
0.025798
  0
VERTEX
  8
0
 10
275.625816
 20
277.552538
 42
0.028709
  0
VERTEX
  8
0
 10
273.098269
 20
284.166023
 42
0.030855
  0
VERTEX
  8
0
 10
270.062158
 20
289.939324
 42
0.046502
  0
VERTEX
  8
0
 10
266.675242
 20
294.500000
 42
0.008786
  0
VERTEX
  8
0
 10
265.293606
 20
295.985230
 42
0.016869
  0
VERTEX
  8
0
 10
264.126172
 20
297.117733
 42
0.015867
  0
VERTEX
  8
0
 10
263.231129
 20
297.878906
 42
0.607918
  0
SEQEND
  0
POLYLINE
  8
0
 66
1
 70
1
  0
VERTEX
  8
0
 10
108.502229
 20
386.424597
 42
0.028886
  0
VERTEX
  8
0
 10
105.621425
 20
384.704065
 42
0.053886
  0
VERTEX
  8
0
 10
103.551716
 20
382.947246
 42
0.047463
  0
VERTEX
  8
0
 10
101.743919
 20
380.639273
 42
0.017796
  0
VERTEX
  8
0
 10
99.649874
 20
377.098036
 42
0.025988
  0
VERTEX
  8
0
 10
97.948914
 20
373.544786
 42
0.205321
  0
VERTEX
  8
0
 10
97.967677
 20
371.759616
 42
0.173864
  0
VERTEX
  8
0
 10
99.284304
 20
370.373827
 42
0.017732
  0
VERTEX
  8
0
 10
103.465531
 20
368.449955
 42
0.079352
  0
VERTEX
  8
0
 10
110.054730
 20
366.855564
 42
0.074179
  0
VERTEX
  8
0
 10
116.974752
 20
367.334158
 42
0.069640
  0
VERTEX
  8
0
 10
123.827108
 20
369.883659
 42
0.057721
  0
VERTEX
  8
0
 10
130.210161
 20
374.350237
 42
0.000000
  0
VERTEX
  8
0
 10
133.920322
 20
377.643078
 42
0.000000
  0
VERTEX
  8
0
 10
129.696853
 20
381.173461
 42
0.038898
  0
VERTEX
  8
0
 10
123.760270
 20
385.398138
 42
0.074605
  0
VERTEX
  8
0
 10
118.370132
 20
387.625137
 42
0.091501
  0
VERTEX
  8
0
 10
113.342140
 20
387.929061
 42
0.089868
  0
SEQEND
  0
POLYLINE
  8
0
 66
1
 70
1
  0
VERTEX
  8
0
 10
124.304447
 20
380.500000
 42
-0.016983
  0
VERTEX
  8
0
 10
126.079781
 20
379.277930
 42
-0.025753
  0
VERTEX
  8
0
 10
127.527057
 20
378.087500
 42
-0.023410
  0
VERTEX
  8
0
 10
128.565239
 20
377.046747
 42
-0.265327
  0
VERTEX
  8
0
 10
128.686726
 20
376.500000
 42
-0.159660
  0
VERTEX
  8
0
 10
127.890793
 20
375.377295
 42
-0.006092
  0
VERTEX
  8
0
 10
123.684647
 20
372.340948
 42
-0.006395
  0
VERTEX
  8
0
 10
119.420439
 20
369.421843
 42
-0.147940
  0
VERTEX
  8
0
 10
118.025916
 20
369.000000
 42
-0.400905
  0
VERTEX
  8
0
 10
117.793513
 20
369.222028
 42
-0.031020
  0
VERTEX
  8
0
 10
117.808974
 20
370.166556
 42
-0.029044
  0
VERTEX
  8
0
 10
117.984962
 20
371.448217
 42
-0.016577
  0
VERTEX
  8
0
 10
118.337850
 20
372.971256
 42
0.026364
  0
VERTEX
  8
0
 10
118.802209
 20
375.170176
 42
0.060074
  0
VERTEX
  8
0
 10
118.862163
 20
376.863180
 42
0.061459
  0
VERTEX
  8
0
 10
118.518178
 20
378.498151
 42
0.028718
  0
VERTEX
  8
0
 10
117.698919
 20
380.505183
 42
-0.004401
  0
VERTEX
  8
0
 10
117.047996
 20
381.901693
 42
-0.006353
  0
VERTEX
  8
0
 10
116.499058
 20
383.148762
 42
-0.003532
  0
VERTEX
  8
0
 10
116.057761
 20
384.207578
 42
-0.097262
  0
VERTEX
  8
0
 10
116.000000
 20
384.501703
 42
-0.525568
  0
VERTEX
  8
0
 10
116.403769
 20
384.779725
 42
-0.021071
  0
VERTEX
  8
0
 10
118.339671
 20
383.945430
 42
-0.020459
  0
VERTEX
  8
0
 10
120.985772
 20
382.534185
 42
-0.009511
  0
SEQEND
  0
POLYLINE
  8
0
 66
1
 70
1
  0
VERTEX
  8
0
 10
107.623198
 20
377.250000
 42
0.017095
  0
VERTEX
  8
0
 10
107.657444
 20
375.294873
 42
0.017136
  0
VERTEX
  8
0
 10
107.825212
 20
373.348224
 42
0.017232
  0
VERTEX
  8
0
 10
108.087910
 20
371.663691
 42
0.062940
  0
VERTEX
  8
0
 10
108.422129
 20
370.637570
 42
-0.042563
  0
VERTEX
  8
0
 10
108.806582
 20
369.602118
 42
-0.370547
  0
VERTEX
  8
0
 10
108.613569
 20
369.191365
 42
-0.150376
  0
VERTEX
  8
0
 10
107.934798
 20
369.107260
 42
-0.009115
  0
VERTEX
  8
0
 10
105.900132
 20
369.505882
 42
-0.019153
  0
VERTEX
  8
0
 10
102.338821
 20
370.415222
 42
-0.086431
  0
VERTEX
  8
0
 10
100.423272
 20
371.366023
 42
-0.192498
  0
VERTEX
  8
0
 10
99.717687
 20
372.498259
 42
-0.168658
  0
VERTEX
  8
0
 10
99.937145
 20
373.882555
 42
-0.049799
  0
VERTEX
  8
0
 10
101.185275
 20
375.742994
 42
-0.010759
  0
VERTEX
  8
0
 10
103.719782
 20
378.680121
 42
-0.005145
  0
VERTEX
  8
0
 10
106.457721
 20
381.656137
 42
-0.207073
  0
VERTEX
  8
0
 10
107.252411
 20
382.000000
 42
-0.381871
  0
VERTEX
  8
0
 10
107.429336
 20
381.841806
 42
-0.008442
  0
VERTEX
  8
0
 10
107.546951
 20
380.604688
 42
-0.014760
  0
VERTEX
  8
0
 10
107.621201
 20
379.071266
 42
-0.008885
  0
SEQEND
  0
POLYLINE
  8
0
 66
1
 70
1
  0
VERTEX
  8
0
 10
115.500000
 20
376.666667
 42
-0.050670
  0
VERTEX
  8
0
 10
115.271157
 20
374.414308
 42
-0.379302
  0
VERTEX
  8
0
 10
114.480598
 20
373.821743
 42
-0.311923
  0
VERTEX
  8
0
 10
113.620762
 20
374.526462
 42
-0.046050
  0
VERTEX
  8
0
 10
113.178653
 20
376.857116
 42
-0.019317
  0
VERTEX
  8
0
 10
113.088724
 20
378.438645
 42
-0.087338
  0
VERTEX
  8
0
 10
113.231858
 20
379.348344
 42
-0.211459
  0
VERTEX
  8
0
 10
113.603159
 20
379.749254
 42
-0.184216
  0
VERTEX
  8
0
 10
114.178653
 20
379.773782
 42
-0.150239
  0
VERTEX
  8
0
 10
114.685100
 20
379.412226
 42
-0.062696
  0
VERTEX
  8
0
 10
115.111854
 20
378.679382
 42
-0.054251
  0
VERTEX
  8
0
 10
115.402177
 20
377.719466
 42
-0.046359
  0
SEQEND
  0
POLYLINE
  8
0
 66
1
 70
1
  0
VERTEX
  8
0
 10
56.454545
 20
349.545455
 42
0.045263
  0
VERTEX
  8
0
 10
55.430904
 20
348.317572
 42
0.046211
  0
VERTEX
  8
0
 10
54.652985
 20
346.933709
 42
0.047852
  0
VERTEX
  8
0
 10
54.164625
 20
345.480141
 42
0.057185
  0
VERTEX
  8
0
 10
54.000000
 20
344.045455
 42
0.014795
  0
VERTEX
  8
0
 10
54.034553
 20
342.877940
 42
0.024245
  0
VERTEX
  8
0
 10
54.140825
 20
341.894602
 42
0.021175
  0
VERTEX
  8
0
 10
54.291049
 20
341.147695
 42
0.345313
  0
VERTEX
  8
0
 10
54.479405
 20
341.000000
 42
0.206892
  0
VERTEX
  8
0
 10
55.215398
 20
341.318161
 42
0.002033
  0
VERTEX
  8
0
 10
59.232461
 20
345.624341
 42
0.003672
  0
VERTEX
  8
0
 10
63.039581
 20
349.799988
 42
0.093731
  0
VERTEX
  8
0
 10
63.833333
 20
351.109263
 42
0.471841
  0
VERTEX
  8
0
 10
63.335140
 20
351.972064
 42
0.093838
  0
VERTEX
  8
0
 10
61.282259
 20
351.927480
 42
0.057764
  0
VERTEX
  8
0
 10
58.526179
 20
351.001146
 42
0.086654
  0
SEQEND
  0
ENDSEC
  0
EOF
